<mxfile host="app.diagrams.net" modified="2023-12-07T12:46:58.891Z" agent="Mozilla/5.0 (Windows NT 10.0; Win64; x64) AppleWebKit/537.36 (KHTML, like Gecko) Chrome/120.0.0.0 Safari/537.36" version="22.1.7" etag="1EeGawD7MwLDwcT1Q4Bi" type="device">
  <diagram id="i9AFECZUohdcn_ntyj4q" name="Seite-1">
    <mxGraphModel dx="2607" dy="1342" grid="0" gridSize="10" guides="1" tooltips="1" connect="1" arrows="1" fold="1" page="1" pageScale="1" pageWidth="2500" pageHeight="1300" math="0" shadow="0">
      <root>
        <mxCell id="0" />
        <mxCell id="1" parent="0" />
        <mxCell id="RrYDVx2lHr9lMabAJrdJ-11" value="&lt;font style=&quot;font-size: 25px;&quot;&gt;ER Diagramm - not integrated&lt;/font&gt;" style="text;html=1;strokeColor=none;fillColor=none;align=center;verticalAlign=middle;whiteSpace=wrap;rounded=0;fontFamily=Open Sans;fontSource=https%3A%2F%2Ffonts.googleapis.com%2Fcss%3Ffamily%3DOpen%2BSans;fontStyle=1" parent="1" vertex="1">
          <mxGeometry x="180" y="120" width="400" height="30" as="geometry" />
        </mxCell>
        <mxCell id="RrYDVx2lHr9lMabAJrdJ-20" value="" style="group" parent="1" vertex="1" connectable="0">
          <mxGeometry x="200" y="280" width="780" height="130" as="geometry" />
        </mxCell>
        <mxCell id="9K8fXc_CGupb1Yc-ZLWw-1" value="&lt;font data-font-src=&quot;https://fonts.googleapis.com/css?family=Open+Sans&quot; face=&quot;Open Sans&quot;&gt;&lt;b&gt;Season&lt;/b&gt;&lt;/font&gt;" style="rounded=0;whiteSpace=wrap;html=1;fillColor=#a5d7d2;" parent="RrYDVx2lHr9lMabAJrdJ-20" vertex="1">
          <mxGeometry x="330" y="90" width="120" height="40" as="geometry" />
        </mxCell>
        <mxCell id="RrYDVx2lHr9lMabAJrdJ-1" value="&lt;font data-font-src=&quot;https://fonts.googleapis.com/css?family=Open+Sans&quot; face=&quot;Open Sans&quot;&gt;name&lt;/font&gt;" style="ellipse;whiteSpace=wrap;html=1;fillColor=#1EA5A5;" parent="RrYDVx2lHr9lMabAJrdJ-20" vertex="1">
          <mxGeometry x="175" width="80" height="40" as="geometry" />
        </mxCell>
        <mxCell id="RrYDVx2lHr9lMabAJrdJ-8" style="edgeStyle=none;rounded=0;orthogonalLoop=1;jettySize=auto;html=1;entryX=0.5;entryY=1;entryDx=0;entryDy=0;fontFamily=Open Sans;fontSource=https%3A%2F%2Ffonts.googleapis.com%2Fcss%3Ffamily%3DOpen%2BSans;endArrow=none;endFill=0;exitX=0.5;exitY=0;exitDx=0;exitDy=0;" parent="RrYDVx2lHr9lMabAJrdJ-20" source="9K8fXc_CGupb1Yc-ZLWw-1" target="RrYDVx2lHr9lMabAJrdJ-1" edge="1">
          <mxGeometry relative="1" as="geometry" />
        </mxCell>
        <mxCell id="RrYDVx2lHr9lMabAJrdJ-2" value="&lt;font data-font-src=&quot;https://fonts.googleapis.com/css?family=Open+Sans&quot; face=&quot;Open Sans&quot;&gt;type&lt;/font&gt;" style="ellipse;whiteSpace=wrap;html=1;fillColor=#1EA5A5;" parent="RrYDVx2lHr9lMabAJrdJ-20" vertex="1">
          <mxGeometry x="262" width="80" height="40" as="geometry" />
        </mxCell>
        <mxCell id="RrYDVx2lHr9lMabAJrdJ-9" style="edgeStyle=none;rounded=0;orthogonalLoop=1;jettySize=auto;html=1;entryX=0.5;entryY=1;entryDx=0;entryDy=0;fontFamily=Open Sans;fontSource=https%3A%2F%2Ffonts.googleapis.com%2Fcss%3Ffamily%3DOpen%2BSans;endArrow=none;endFill=0;exitX=0.5;exitY=0;exitDx=0;exitDy=0;" parent="RrYDVx2lHr9lMabAJrdJ-20" source="9K8fXc_CGupb1Yc-ZLWw-1" target="RrYDVx2lHr9lMabAJrdJ-2" edge="1">
          <mxGeometry relative="1" as="geometry" />
        </mxCell>
        <mxCell id="RrYDVx2lHr9lMabAJrdJ-3" value="logo" style="ellipse;whiteSpace=wrap;html=1;fillColor=#1EA5A5;fontFamily=Open Sans;fontSource=https%3A%2F%2Ffonts.googleapis.com%2Fcss%3Ffamily%3DOpen%2BSans;" parent="RrYDVx2lHr9lMabAJrdJ-20" vertex="1">
          <mxGeometry x="350" width="80" height="40" as="geometry" />
        </mxCell>
        <mxCell id="RrYDVx2lHr9lMabAJrdJ-10" style="edgeStyle=none;rounded=0;orthogonalLoop=1;jettySize=auto;html=1;entryX=0.5;entryY=1;entryDx=0;entryDy=0;fontFamily=Open Sans;fontSource=https%3A%2F%2Ffonts.googleapis.com%2Fcss%3Ffamily%3DOpen%2BSans;endArrow=none;endFill=0;exitX=0.5;exitY=0;exitDx=0;exitDy=0;" parent="RrYDVx2lHr9lMabAJrdJ-20" source="9K8fXc_CGupb1Yc-ZLWw-1" target="RrYDVx2lHr9lMabAJrdJ-3" edge="1">
          <mxGeometry relative="1" as="geometry" />
        </mxCell>
        <mxCell id="RrYDVx2lHr9lMabAJrdJ-4" value="&lt;font data-font-src=&quot;https://fonts.googleapis.com/css?family=Open+Sans&quot; face=&quot;Open Sans&quot;&gt;leagueID&lt;/font&gt;" style="ellipse;whiteSpace=wrap;html=1;fillColor=#1EA5A5;" parent="RrYDVx2lHr9lMabAJrdJ-20" vertex="1">
          <mxGeometry x="87" width="80" height="40" as="geometry" />
        </mxCell>
        <mxCell id="RrYDVx2lHr9lMabAJrdJ-7" style="edgeStyle=none;rounded=0;orthogonalLoop=1;jettySize=auto;html=1;entryX=0.5;entryY=1;entryDx=0;entryDy=0;fontFamily=Open Sans;fontSource=https%3A%2F%2Ffonts.googleapis.com%2Fcss%3Ffamily%3DOpen%2BSans;exitX=0.5;exitY=0;exitDx=0;exitDy=0;endArrow=none;endFill=0;" parent="RrYDVx2lHr9lMabAJrdJ-20" source="9K8fXc_CGupb1Yc-ZLWw-1" target="RrYDVx2lHr9lMabAJrdJ-4" edge="1">
          <mxGeometry relative="1" as="geometry" />
        </mxCell>
        <mxCell id="RrYDVx2lHr9lMabAJrdJ-5" value="&lt;u&gt;&lt;font data-font-src=&quot;https://fonts.googleapis.com/css?family=Open+Sans&quot; face=&quot;Open Sans&quot;&gt;seasonID&lt;/font&gt;&lt;/u&gt;" style="ellipse;whiteSpace=wrap;html=1;fillColor=#1EA5A5;" parent="RrYDVx2lHr9lMabAJrdJ-20" vertex="1">
          <mxGeometry width="80" height="40" as="geometry" />
        </mxCell>
        <mxCell id="RrYDVx2lHr9lMabAJrdJ-6" style="rounded=0;orthogonalLoop=1;jettySize=auto;html=1;entryX=0.5;entryY=1;entryDx=0;entryDy=0;fontFamily=Open Sans;fontSource=https%3A%2F%2Ffonts.googleapis.com%2Fcss%3Ffamily%3DOpen%2BSans;exitX=0.5;exitY=0;exitDx=0;exitDy=0;endArrow=none;endFill=0;" parent="RrYDVx2lHr9lMabAJrdJ-20" source="9K8fXc_CGupb1Yc-ZLWw-1" target="RrYDVx2lHr9lMabAJrdJ-5" edge="1">
          <mxGeometry relative="1" as="geometry" />
        </mxCell>
        <mxCell id="RrYDVx2lHr9lMabAJrdJ-12" value="&lt;font data-font-src=&quot;https://fonts.googleapis.com/css?family=Open+Sans&quot; face=&quot;Open Sans&quot;&gt;country&lt;/font&gt;" style="ellipse;whiteSpace=wrap;html=1;fillColor=#1EA5A5;" parent="RrYDVx2lHr9lMabAJrdJ-20" vertex="1">
          <mxGeometry x="437" width="80" height="40" as="geometry" />
        </mxCell>
        <mxCell id="RrYDVx2lHr9lMabAJrdJ-16" style="edgeStyle=none;rounded=0;orthogonalLoop=1;jettySize=auto;html=1;entryX=0.5;entryY=1;entryDx=0;entryDy=0;fontFamily=Open Sans;fontSource=https%3A%2F%2Ffonts.googleapis.com%2Fcss%3Ffamily%3DOpen%2BSans;fontSize=17;endArrow=none;endFill=0;exitX=0.5;exitY=0;exitDx=0;exitDy=0;" parent="RrYDVx2lHr9lMabAJrdJ-20" source="9K8fXc_CGupb1Yc-ZLWw-1" target="RrYDVx2lHr9lMabAJrdJ-12" edge="1">
          <mxGeometry relative="1" as="geometry" />
        </mxCell>
        <mxCell id="RrYDVx2lHr9lMabAJrdJ-13" value="&lt;font data-font-src=&quot;https://fonts.googleapis.com/css?family=Open+Sans&quot; face=&quot;Open Sans&quot;&gt;year&lt;/font&gt;" style="ellipse;whiteSpace=wrap;html=1;fillColor=#1EA5A5;" parent="RrYDVx2lHr9lMabAJrdJ-20" vertex="1">
          <mxGeometry x="525" width="80" height="40" as="geometry" />
        </mxCell>
        <mxCell id="RrYDVx2lHr9lMabAJrdJ-17" style="edgeStyle=none;rounded=0;orthogonalLoop=1;jettySize=auto;html=1;entryX=0.5;entryY=1;entryDx=0;entryDy=0;fontFamily=Open Sans;fontSource=https%3A%2F%2Ffonts.googleapis.com%2Fcss%3Ffamily%3DOpen%2BSans;fontSize=17;endArrow=none;endFill=0;exitX=0.5;exitY=0;exitDx=0;exitDy=0;" parent="RrYDVx2lHr9lMabAJrdJ-20" source="9K8fXc_CGupb1Yc-ZLWw-1" target="RrYDVx2lHr9lMabAJrdJ-13" edge="1">
          <mxGeometry relative="1" as="geometry" />
        </mxCell>
        <mxCell id="RrYDVx2lHr9lMabAJrdJ-14" value="&lt;font data-font-src=&quot;https://fonts.googleapis.com/css?family=Open+Sans&quot; face=&quot;Open Sans&quot;&gt;start&lt;/font&gt;" style="ellipse;whiteSpace=wrap;html=1;fillColor=#1EA5A5;" parent="RrYDVx2lHr9lMabAJrdJ-20" vertex="1">
          <mxGeometry x="612" width="80" height="40" as="geometry" />
        </mxCell>
        <mxCell id="RrYDVx2lHr9lMabAJrdJ-18" style="edgeStyle=none;rounded=0;orthogonalLoop=1;jettySize=auto;html=1;entryX=0.5;entryY=1;entryDx=0;entryDy=0;fontFamily=Open Sans;fontSource=https%3A%2F%2Ffonts.googleapis.com%2Fcss%3Ffamily%3DOpen%2BSans;fontSize=17;endArrow=none;endFill=0;exitX=0.5;exitY=0;exitDx=0;exitDy=0;" parent="RrYDVx2lHr9lMabAJrdJ-20" source="9K8fXc_CGupb1Yc-ZLWw-1" target="RrYDVx2lHr9lMabAJrdJ-14" edge="1">
          <mxGeometry relative="1" as="geometry" />
        </mxCell>
        <mxCell id="RrYDVx2lHr9lMabAJrdJ-15" value="&lt;font data-font-src=&quot;https://fonts.googleapis.com/css?family=Open+Sans&quot; face=&quot;Open Sans&quot;&gt;end&lt;/font&gt;" style="ellipse;whiteSpace=wrap;html=1;fillColor=#1EA5A5;" parent="RrYDVx2lHr9lMabAJrdJ-20" vertex="1">
          <mxGeometry x="700" width="80" height="40" as="geometry" />
        </mxCell>
        <mxCell id="RrYDVx2lHr9lMabAJrdJ-19" style="edgeStyle=none;rounded=0;orthogonalLoop=1;jettySize=auto;html=1;entryX=0.5;entryY=1;entryDx=0;entryDy=0;fontFamily=Open Sans;fontSource=https%3A%2F%2Ffonts.googleapis.com%2Fcss%3Ffamily%3DOpen%2BSans;fontSize=17;endArrow=none;endFill=0;exitX=0.5;exitY=0;exitDx=0;exitDy=0;" parent="RrYDVx2lHr9lMabAJrdJ-20" source="9K8fXc_CGupb1Yc-ZLWw-1" target="RrYDVx2lHr9lMabAJrdJ-15" edge="1">
          <mxGeometry relative="1" as="geometry" />
        </mxCell>
        <mxCell id="RrYDVx2lHr9lMabAJrdJ-170" value="" style="group" parent="1" vertex="1" connectable="0">
          <mxGeometry x="1552" y="580" width="840" height="692.77" as="geometry" />
        </mxCell>
        <mxCell id="RrYDVx2lHr9lMabAJrdJ-92" value="&lt;font data-font-src=&quot;https://fonts.googleapis.com/css?family=Open+Sans&quot; face=&quot;Open Sans&quot;&gt;&lt;b&gt;Card&lt;/b&gt;&lt;/font&gt;" style="rounded=0;whiteSpace=wrap;html=1;fillColor=#a5d7d2;" parent="RrYDVx2lHr9lMabAJrdJ-170" vertex="1">
          <mxGeometry x="300" y="277" width="120" height="40" as="geometry" />
        </mxCell>
        <mxCell id="RrYDVx2lHr9lMabAJrdJ-93" style="edgeStyle=none;rounded=0;orthogonalLoop=1;jettySize=auto;html=1;startArrow=none;startFill=0;endArrow=none;endFill=0;exitX=1;exitY=0.5;exitDx=0;exitDy=0;entryX=0;entryY=0.5;entryDx=0;entryDy=0;" parent="RrYDVx2lHr9lMabAJrdJ-170" source="RrYDVx2lHr9lMabAJrdJ-94" target="RrYDVx2lHr9lMabAJrdJ-92" edge="1">
          <mxGeometry relative="1" as="geometry" />
        </mxCell>
        <mxCell id="RrYDVx2lHr9lMabAJrdJ-94" value="&lt;font data-font-src=&quot;https://fonts.googleapis.com/css?family=Open+Sans&quot; face=&quot;Open Sans&quot;&gt;&lt;u&gt;assetId&lt;/u&gt;&lt;/font&gt;" style="ellipse;whiteSpace=wrap;html=1;fillColor=#1EA5A5;" parent="RrYDVx2lHr9lMabAJrdJ-170" vertex="1">
          <mxGeometry x="130" width="80" height="40" as="geometry" />
        </mxCell>
        <mxCell id="RrYDVx2lHr9lMabAJrdJ-95" style="edgeStyle=none;rounded=0;orthogonalLoop=1;jettySize=auto;html=1;startArrow=none;startFill=0;endArrow=none;endFill=0;exitX=1;exitY=0.5;exitDx=0;exitDy=0;entryX=0;entryY=0.5;entryDx=0;entryDy=0;" parent="RrYDVx2lHr9lMabAJrdJ-170" source="RrYDVx2lHr9lMabAJrdJ-96" target="RrYDVx2lHr9lMabAJrdJ-92" edge="1">
          <mxGeometry relative="1" as="geometry" />
        </mxCell>
        <mxCell id="RrYDVx2lHr9lMabAJrdJ-96" value="&lt;font data-font-src=&quot;https://fonts.googleapis.com/css?family=Open+Sans&quot; face=&quot;Open Sans&quot;&gt;birthTxHash&lt;/font&gt;" style="ellipse;whiteSpace=wrap;html=1;fillColor=#1EA5A5;" parent="RrYDVx2lHr9lMabAJrdJ-170" vertex="1">
          <mxGeometry x="130" y="55" width="80" height="40" as="geometry" />
        </mxCell>
        <mxCell id="RrYDVx2lHr9lMabAJrdJ-97" style="edgeStyle=none;rounded=0;orthogonalLoop=1;jettySize=auto;html=1;startArrow=none;startFill=0;endArrow=none;endFill=0;exitX=1;exitY=0.5;exitDx=0;exitDy=0;entryX=0;entryY=0.5;entryDx=0;entryDy=0;" parent="RrYDVx2lHr9lMabAJrdJ-170" source="RrYDVx2lHr9lMabAJrdJ-98" target="RrYDVx2lHr9lMabAJrdJ-92" edge="1">
          <mxGeometry relative="1" as="geometry" />
        </mxCell>
        <mxCell id="RrYDVx2lHr9lMabAJrdJ-98" value="blockchainId" style="ellipse;whiteSpace=wrap;html=1;fillColor=#1EA5A5;" parent="RrYDVx2lHr9lMabAJrdJ-170" vertex="1">
          <mxGeometry x="130" y="111" width="80" height="40" as="geometry" />
        </mxCell>
        <mxCell id="RrYDVx2lHr9lMabAJrdJ-99" style="edgeStyle=none;rounded=0;orthogonalLoop=1;jettySize=auto;html=1;startArrow=none;startFill=0;endArrow=none;endFill=0;exitX=1;exitY=0.5;exitDx=0;exitDy=0;entryX=0;entryY=0.5;entryDx=0;entryDy=0;" parent="RrYDVx2lHr9lMabAJrdJ-170" source="RrYDVx2lHr9lMabAJrdJ-100" target="RrYDVx2lHr9lMabAJrdJ-92" edge="1">
          <mxGeometry relative="1" as="geometry" />
        </mxCell>
        <mxCell id="RrYDVx2lHr9lMabAJrdJ-100" value="&lt;font data-font-src=&quot;https://fonts.googleapis.com/css?family=Open+Sans&quot; face=&quot;Open Sans&quot;&gt;createdAt&lt;/font&gt;" style="ellipse;whiteSpace=wrap;html=1;fillColor=#1EA5A5;" parent="RrYDVx2lHr9lMabAJrdJ-170" vertex="1">
          <mxGeometry x="130" y="333" width="80" height="40" as="geometry" />
        </mxCell>
        <mxCell id="RrYDVx2lHr9lMabAJrdJ-103" style="edgeStyle=none;rounded=0;orthogonalLoop=1;jettySize=auto;html=1;startArrow=none;startFill=0;endArrow=none;endFill=0;exitX=1;exitY=0.5;exitDx=0;exitDy=0;entryX=0;entryY=0.5;entryDx=0;entryDy=0;" parent="RrYDVx2lHr9lMabAJrdJ-170" source="RrYDVx2lHr9lMabAJrdJ-104" target="RrYDVx2lHr9lMabAJrdJ-92" edge="1">
          <mxGeometry relative="1" as="geometry" />
        </mxCell>
        <mxCell id="RrYDVx2lHr9lMabAJrdJ-104" value="&lt;font data-font-src=&quot;https://fonts.googleapis.com/css?family=Open+Sans&quot; face=&quot;Open Sans&quot;&gt;name&lt;/font&gt;" style="ellipse;whiteSpace=wrap;html=1;fillColor=#1EA5A5;" parent="RrYDVx2lHr9lMabAJrdJ-170" vertex="1">
          <mxGeometry x="130" y="166" width="80" height="40" as="geometry" />
        </mxCell>
        <mxCell id="RrYDVx2lHr9lMabAJrdJ-105" style="edgeStyle=none;rounded=0;orthogonalLoop=1;jettySize=auto;html=1;startArrow=none;startFill=0;endArrow=none;endFill=0;exitX=1;exitY=0.5;exitDx=0;exitDy=0;entryX=0;entryY=0.5;entryDx=0;entryDy=0;" parent="RrYDVx2lHr9lMabAJrdJ-170" source="RrYDVx2lHr9lMabAJrdJ-106" target="RrYDVx2lHr9lMabAJrdJ-92" edge="1">
          <mxGeometry relative="1" as="geometry" />
        </mxCell>
        <mxCell id="RrYDVx2lHr9lMabAJrdJ-106" value="&lt;font data-font-src=&quot;https://fonts.googleapis.com/css?family=Open+Sans&quot; face=&quot;Open Sans&quot;&gt;owner&lt;/font&gt;" style="ellipse;whiteSpace=wrap;html=1;fillColor=#1EA5A5;" parent="RrYDVx2lHr9lMabAJrdJ-170" vertex="1">
          <mxGeometry x="130" y="222" width="80" height="40" as="geometry" />
        </mxCell>
        <mxCell id="RrYDVx2lHr9lMabAJrdJ-107" style="edgeStyle=none;rounded=0;orthogonalLoop=1;jettySize=auto;html=1;startArrow=none;startFill=0;endArrow=none;endFill=0;entryX=0;entryY=0.5;entryDx=0;entryDy=0;exitX=1;exitY=0.5;exitDx=0;exitDy=0;" parent="RrYDVx2lHr9lMabAJrdJ-170" source="RrYDVx2lHr9lMabAJrdJ-156" target="RrYDVx2lHr9lMabAJrdJ-106" edge="1">
          <mxGeometry relative="1" as="geometry">
            <mxPoint x="99.99999999999545" y="222.05999999999995" as="sourcePoint" />
          </mxGeometry>
        </mxCell>
        <mxCell id="RrYDVx2lHr9lMabAJrdJ-109" style="edgeStyle=none;rounded=0;orthogonalLoop=1;jettySize=auto;html=1;startArrow=none;startFill=0;endArrow=none;endFill=0;entryX=0;entryY=0.5;entryDx=0;entryDy=0;exitX=1;exitY=0.5;exitDx=0;exitDy=0;" parent="RrYDVx2lHr9lMabAJrdJ-170" source="RrYDVx2lHr9lMabAJrdJ-157" target="RrYDVx2lHr9lMabAJrdJ-106" edge="1">
          <mxGeometry relative="1" as="geometry">
            <mxPoint x="100.000000000005" y="261.55999999999995" as="sourcePoint" />
          </mxGeometry>
        </mxCell>
        <mxCell id="RrYDVx2lHr9lMabAJrdJ-111" style="edgeStyle=none;rounded=0;orthogonalLoop=1;jettySize=auto;html=1;startArrow=none;startFill=0;endArrow=none;endFill=0;exitX=1;exitY=0.5;exitDx=0;exitDy=0;entryX=0;entryY=0.5;entryDx=0;entryDy=0;" parent="RrYDVx2lHr9lMabAJrdJ-170" source="RrYDVx2lHr9lMabAJrdJ-112" target="RrYDVx2lHr9lMabAJrdJ-92" edge="1">
          <mxGeometry relative="1" as="geometry" />
        </mxCell>
        <mxCell id="RrYDVx2lHr9lMabAJrdJ-112" value="&lt;font data-font-src=&quot;https://fonts.googleapis.com/css?family=Open+Sans&quot; face=&quot;Open Sans&quot;&gt;ownerSince&lt;/font&gt;" style="ellipse;whiteSpace=wrap;html=1;fillColor=#1EA5A5;" parent="RrYDVx2lHr9lMabAJrdJ-170" vertex="1">
          <mxGeometry x="130" y="277" width="80" height="40" as="geometry" />
        </mxCell>
        <mxCell id="RrYDVx2lHr9lMabAJrdJ-113" value="player" style="ellipse;whiteSpace=wrap;html=1;fillColor=#1EA5A5;rounded=0;fontFamily=Open Sans;fontSource=https%3A%2F%2Ffonts.googleapis.com%2Fcss%3Ffamily%3DOpen%2BSans;" parent="RrYDVx2lHr9lMabAJrdJ-170" vertex="1">
          <mxGeometry x="484" y="277" width="80" height="40" as="geometry" />
        </mxCell>
        <mxCell id="RrYDVx2lHr9lMabAJrdJ-91" style="edgeStyle=none;rounded=0;orthogonalLoop=1;jettySize=auto;html=1;startArrow=none;startFill=0;endArrow=none;endFill=0;" parent="RrYDVx2lHr9lMabAJrdJ-170" source="RrYDVx2lHr9lMabAJrdJ-92" target="RrYDVx2lHr9lMabAJrdJ-113" edge="1">
          <mxGeometry relative="1" as="geometry" />
        </mxCell>
        <mxCell id="RrYDVx2lHr9lMabAJrdJ-114" style="edgeStyle=none;rounded=0;orthogonalLoop=1;jettySize=auto;html=1;startArrow=none;startFill=0;endArrow=none;endFill=0;exitX=0;exitY=0.5;exitDx=0;exitDy=0;entryX=1;entryY=0.5;entryDx=0;entryDy=0;" parent="RrYDVx2lHr9lMabAJrdJ-170" source="RrYDVx2lHr9lMabAJrdJ-115" target="RrYDVx2lHr9lMabAJrdJ-113" edge="1">
          <mxGeometry relative="1" as="geometry" />
        </mxCell>
        <mxCell id="RrYDVx2lHr9lMabAJrdJ-115" value="age" style="ellipse;whiteSpace=wrap;html=1;fillColor=#1EA5A5;fontFamily=Open Sans;fontSource=https%3A%2F%2Ffonts.googleapis.com%2Fcss%3Ffamily%3DOpen%2BSans;flipV=1;flipH=1;" parent="RrYDVx2lHr9lMabAJrdJ-170" vertex="1">
          <mxGeometry x="669.5" width="80" height="40" as="geometry" />
        </mxCell>
        <mxCell id="RrYDVx2lHr9lMabAJrdJ-116" style="edgeStyle=none;rounded=0;orthogonalLoop=1;jettySize=auto;html=1;startArrow=none;startFill=0;endArrow=none;endFill=0;exitX=0;exitY=0.5;exitDx=0;exitDy=0;entryX=1;entryY=0.5;entryDx=0;entryDy=0;" parent="RrYDVx2lHr9lMabAJrdJ-170" source="RrYDVx2lHr9lMabAJrdJ-117" target="RrYDVx2lHr9lMabAJrdJ-113" edge="1">
          <mxGeometry relative="1" as="geometry" />
        </mxCell>
        <mxCell id="RrYDVx2lHr9lMabAJrdJ-117" value="birthDate" style="ellipse;whiteSpace=wrap;html=1;fillColor=#1EA5A5;fontFamily=Open Sans;fontSource=https%3A%2F%2Ffonts.googleapis.com%2Fcss%3Ffamily%3DOpen%2BSans;flipV=1;flipH=1;" parent="RrYDVx2lHr9lMabAJrdJ-170" vertex="1">
          <mxGeometry x="669.5" y="55" width="80" height="40" as="geometry" />
        </mxCell>
        <mxCell id="RrYDVx2lHr9lMabAJrdJ-118" style="edgeStyle=none;rounded=0;orthogonalLoop=1;jettySize=auto;html=1;entryX=1;entryY=0.5;entryDx=0;entryDy=0;startArrow=none;startFill=0;endArrow=none;endFill=0;exitX=0;exitY=0.5;exitDx=0;exitDy=0;" parent="RrYDVx2lHr9lMabAJrdJ-170" source="RrYDVx2lHr9lMabAJrdJ-119" target="RrYDVx2lHr9lMabAJrdJ-113" edge="1">
          <mxGeometry relative="1" as="geometry" />
        </mxCell>
        <mxCell id="RrYDVx2lHr9lMabAJrdJ-119" value="bestFoot" style="ellipse;whiteSpace=wrap;html=1;fillColor=#1EA5A5;fontFamily=Open Sans;fontSource=https%3A%2F%2Ffonts.googleapis.com%2Fcss%3Ffamily%3DOpen%2BSans;flipV=1;flipH=1;" parent="RrYDVx2lHr9lMabAJrdJ-170" vertex="1">
          <mxGeometry x="669.5" y="111" width="80" height="40" as="geometry" />
        </mxCell>
        <mxCell id="RrYDVx2lHr9lMabAJrdJ-120" style="edgeStyle=none;rounded=0;orthogonalLoop=1;jettySize=auto;html=1;entryX=1;entryY=0.5;entryDx=0;entryDy=0;startArrow=none;startFill=0;endArrow=none;endFill=0;exitX=0;exitY=0.5;exitDx=0;exitDy=0;" parent="RrYDVx2lHr9lMabAJrdJ-170" source="RrYDVx2lHr9lMabAJrdJ-121" target="RrYDVx2lHr9lMabAJrdJ-113" edge="1">
          <mxGeometry relative="1" as="geometry" />
        </mxCell>
        <mxCell id="RrYDVx2lHr9lMabAJrdJ-121" value="firstName" style="ellipse;whiteSpace=wrap;html=1;fillColor=#1EA5A5;fontFamily=Open Sans;fontSource=https%3A%2F%2Ffonts.googleapis.com%2Fcss%3Ffamily%3DOpen%2BSans;flipV=1;flipH=1;" parent="RrYDVx2lHr9lMabAJrdJ-170" vertex="1">
          <mxGeometry x="669.5" y="166" width="80" height="40" as="geometry" />
        </mxCell>
        <mxCell id="RrYDVx2lHr9lMabAJrdJ-122" style="edgeStyle=none;rounded=0;orthogonalLoop=1;jettySize=auto;html=1;startArrow=none;startFill=0;endArrow=none;endFill=0;exitX=0;exitY=0.5;exitDx=0;exitDy=0;entryX=1;entryY=0.5;entryDx=0;entryDy=0;" parent="RrYDVx2lHr9lMabAJrdJ-170" source="RrYDVx2lHr9lMabAJrdJ-123" target="RrYDVx2lHr9lMabAJrdJ-113" edge="1">
          <mxGeometry relative="1" as="geometry" />
        </mxCell>
        <mxCell id="RrYDVx2lHr9lMabAJrdJ-123" value="lastName" style="ellipse;whiteSpace=wrap;html=1;fillColor=#1EA5A5;fontFamily=Open Sans;fontSource=https%3A%2F%2Ffonts.googleapis.com%2Fcss%3Ffamily%3DOpen%2BSans;flipV=1;flipH=1;" parent="RrYDVx2lHr9lMabAJrdJ-170" vertex="1">
          <mxGeometry x="669.5" y="222" width="80" height="40" as="geometry" />
        </mxCell>
        <mxCell id="RrYDVx2lHr9lMabAJrdJ-124" style="edgeStyle=none;rounded=0;orthogonalLoop=1;jettySize=auto;html=1;startArrow=none;startFill=0;endArrow=none;endFill=0;exitX=0;exitY=0.5;exitDx=0;exitDy=0;entryX=1;entryY=0.5;entryDx=0;entryDy=0;" parent="RrYDVx2lHr9lMabAJrdJ-170" source="RrYDVx2lHr9lMabAJrdJ-125" target="RrYDVx2lHr9lMabAJrdJ-113" edge="1">
          <mxGeometry relative="1" as="geometry" />
        </mxCell>
        <mxCell id="RrYDVx2lHr9lMabAJrdJ-125" value="displayName" style="ellipse;whiteSpace=wrap;html=1;fillColor=#1EA5A5;fontFamily=Open Sans;fontSource=https%3A%2F%2Ffonts.googleapis.com%2Fcss%3Ffamily%3DOpen%2BSans;flipV=1;flipH=1;" parent="RrYDVx2lHr9lMabAJrdJ-170" vertex="1">
          <mxGeometry x="669.5" y="277" width="80" height="40" as="geometry" />
        </mxCell>
        <mxCell id="RrYDVx2lHr9lMabAJrdJ-126" style="edgeStyle=none;rounded=0;orthogonalLoop=1;jettySize=auto;html=1;startArrow=none;startFill=0;endArrow=none;endFill=0;exitX=0;exitY=0.5;exitDx=0;exitDy=0;entryX=1;entryY=0.5;entryDx=0;entryDy=0;" parent="RrYDVx2lHr9lMabAJrdJ-170" source="RrYDVx2lHr9lMabAJrdJ-127" target="RrYDVx2lHr9lMabAJrdJ-113" edge="1">
          <mxGeometry relative="1" as="geometry" />
        </mxCell>
        <mxCell id="RrYDVx2lHr9lMabAJrdJ-127" value="height" style="ellipse;whiteSpace=wrap;html=1;fillColor=#1EA5A5;fontFamily=Open Sans;fontSource=https%3A%2F%2Ffonts.googleapis.com%2Fcss%3Ffamily%3DOpen%2BSans;flipV=1;flipH=1;" parent="RrYDVx2lHr9lMabAJrdJ-170" vertex="1">
          <mxGeometry x="669.5" y="333" width="80" height="40" as="geometry" />
        </mxCell>
        <mxCell id="RrYDVx2lHr9lMabAJrdJ-128" style="edgeStyle=none;rounded=0;orthogonalLoop=1;jettySize=auto;html=1;startArrow=none;startFill=0;endArrow=none;endFill=0;exitX=0;exitY=0.5;exitDx=0;exitDy=0;entryX=1;entryY=0.5;entryDx=0;entryDy=0;" parent="RrYDVx2lHr9lMabAJrdJ-170" source="RrYDVx2lHr9lMabAJrdJ-129" target="RrYDVx2lHr9lMabAJrdJ-113" edge="1">
          <mxGeometry relative="1" as="geometry" />
        </mxCell>
        <mxCell id="RrYDVx2lHr9lMabAJrdJ-129" value="weight" style="ellipse;whiteSpace=wrap;html=1;fillColor=#1EA5A5;fontFamily=Open Sans;fontSource=https%3A%2F%2Ffonts.googleapis.com%2Fcss%3Ffamily%3DOpen%2BSans;flipV=1;flipH=1;" parent="RrYDVx2lHr9lMabAJrdJ-170" vertex="1">
          <mxGeometry x="669.5" y="388" width="80" height="40" as="geometry" />
        </mxCell>
        <mxCell id="RrYDVx2lHr9lMabAJrdJ-130" style="edgeStyle=none;rounded=0;orthogonalLoop=1;jettySize=auto;html=1;startArrow=none;startFill=0;endArrow=none;endFill=0;exitX=0;exitY=0.5;exitDx=0;exitDy=0;entryX=1;entryY=0.5;entryDx=0;entryDy=0;" parent="RrYDVx2lHr9lMabAJrdJ-170" source="RrYDVx2lHr9lMabAJrdJ-131" target="RrYDVx2lHr9lMabAJrdJ-113" edge="1">
          <mxGeometry relative="1" as="geometry" />
        </mxCell>
        <mxCell id="RrYDVx2lHr9lMabAJrdJ-131" value="slug" style="ellipse;whiteSpace=wrap;html=1;fillColor=#1EA5A5;fontFamily=Open Sans;fontSource=https%3A%2F%2Ffonts.googleapis.com%2Fcss%3Ffamily%3DOpen%2BSans;flipV=1;flipH=1;" parent="RrYDVx2lHr9lMabAJrdJ-170" vertex="1">
          <mxGeometry x="669.5" y="444" width="80" height="40" as="geometry" />
        </mxCell>
        <mxCell id="RrYDVx2lHr9lMabAJrdJ-132" style="edgeStyle=none;rounded=0;orthogonalLoop=1;jettySize=auto;html=1;startArrow=none;startFill=0;endArrow=none;endFill=0;exitX=0;exitY=0.5;exitDx=0;exitDy=0;entryX=1;entryY=0.5;entryDx=0;entryDy=0;" parent="RrYDVx2lHr9lMabAJrdJ-170" source="RrYDVx2lHr9lMabAJrdJ-133" target="RrYDVx2lHr9lMabAJrdJ-113" edge="1">
          <mxGeometry relative="1" as="geometry" />
        </mxCell>
        <mxCell id="RrYDVx2lHr9lMabAJrdJ-133" value="shirtNumber" style="ellipse;whiteSpace=wrap;html=1;fillColor=#1EA5A5;fontFamily=Open Sans;fontSource=https%3A%2F%2Ffonts.googleapis.com%2Fcss%3Ffamily%3DOpen%2BSans;flipV=1;flipH=1;" parent="RrYDVx2lHr9lMabAJrdJ-170" vertex="1">
          <mxGeometry x="669.5" y="499" width="80" height="40" as="geometry" />
        </mxCell>
        <mxCell id="RrYDVx2lHr9lMabAJrdJ-134" style="edgeStyle=none;rounded=0;orthogonalLoop=1;jettySize=auto;html=1;startArrow=none;startFill=0;endArrow=none;endFill=0;exitX=0;exitY=0.5;exitDx=0;exitDy=0;entryX=1;entryY=0.5;entryDx=0;entryDy=0;" parent="RrYDVx2lHr9lMabAJrdJ-170" source="RrYDVx2lHr9lMabAJrdJ-137" target="RrYDVx2lHr9lMabAJrdJ-113" edge="1">
          <mxGeometry relative="1" as="geometry" />
        </mxCell>
        <mxCell id="RrYDVx2lHr9lMabAJrdJ-137" value="activeClub" style="ellipse;whiteSpace=wrap;html=1;fillColor=#1EA5A5;fontFamily=Open Sans;fontSource=https%3A%2F%2Ffonts.googleapis.com%2Fcss%3Ffamily%3DOpen%2BSans;flipV=1;flipH=1;" parent="RrYDVx2lHr9lMabAJrdJ-170" vertex="1">
          <mxGeometry x="669.5" y="555" width="80" height="40" as="geometry" />
        </mxCell>
        <mxCell id="RrYDVx2lHr9lMabAJrdJ-138" style="edgeStyle=none;rounded=0;orthogonalLoop=1;jettySize=auto;html=1;startArrow=none;startFill=0;endArrow=none;endFill=0;exitX=0;exitY=0.5;exitDx=0;exitDy=0;entryX=1;entryY=0.5;entryDx=0;entryDy=0;" parent="RrYDVx2lHr9lMabAJrdJ-170" source="RrYDVx2lHr9lMabAJrdJ-141" target="RrYDVx2lHr9lMabAJrdJ-113" edge="1">
          <mxGeometry relative="1" as="geometry">
            <mxPoint x="540" y="331.25" as="targetPoint" />
          </mxGeometry>
        </mxCell>
        <mxCell id="RrYDVx2lHr9lMabAJrdJ-141" value="lastClub" style="ellipse;whiteSpace=wrap;html=1;fillColor=#1EA5A5;fontFamily=Open Sans;fontSource=https%3A%2F%2Ffonts.googleapis.com%2Fcss%3Ffamily%3DOpen%2BSans;flipV=1;flipH=1;" parent="RrYDVx2lHr9lMabAJrdJ-170" vertex="1">
          <mxGeometry x="669.5" y="610.1800000000001" width="80" height="40" as="geometry" />
        </mxCell>
        <mxCell id="RrYDVx2lHr9lMabAJrdJ-142" style="edgeStyle=none;rounded=0;orthogonalLoop=1;jettySize=auto;html=1;startArrow=none;startFill=0;endArrow=none;endFill=0;exitX=1;exitY=0.5;exitDx=0;exitDy=0;entryX=0;entryY=0.5;entryDx=0;entryDy=0;" parent="RrYDVx2lHr9lMabAJrdJ-170" source="RrYDVx2lHr9lMabAJrdJ-143" target="RrYDVx2lHr9lMabAJrdJ-92" edge="1">
          <mxGeometry relative="1" as="geometry" />
        </mxCell>
        <mxCell id="RrYDVx2lHr9lMabAJrdJ-143" value="&lt;font data-font-src=&quot;https://fonts.googleapis.com/css?family=Open+Sans&quot; face=&quot;Open Sans&quot;&gt;rarity&lt;/font&gt;" style="ellipse;whiteSpace=wrap;html=1;fillColor=#1EA5A5;" parent="RrYDVx2lHr9lMabAJrdJ-170" vertex="1">
          <mxGeometry x="130" y="388" width="80" height="40" as="geometry" />
        </mxCell>
        <mxCell id="RrYDVx2lHr9lMabAJrdJ-144" style="edgeStyle=none;rounded=0;orthogonalLoop=1;jettySize=auto;html=1;startArrow=none;startFill=0;endArrow=none;endFill=0;exitX=1;exitY=0.5;exitDx=0;exitDy=0;entryX=0;entryY=0.5;entryDx=0;entryDy=0;" parent="RrYDVx2lHr9lMabAJrdJ-170" source="RrYDVx2lHr9lMabAJrdJ-145" target="RrYDVx2lHr9lMabAJrdJ-92" edge="1">
          <mxGeometry relative="1" as="geometry" />
        </mxCell>
        <mxCell id="RrYDVx2lHr9lMabAJrdJ-145" value="&lt;font data-font-src=&quot;https://fonts.googleapis.com/css?family=Open+Sans&quot; face=&quot;Open Sans&quot;&gt;season&lt;/font&gt;" style="ellipse;whiteSpace=wrap;html=1;fillColor=#1EA5A5;" parent="RrYDVx2lHr9lMabAJrdJ-170" vertex="1">
          <mxGeometry x="130" y="443.5899999999999" width="80" height="40" as="geometry" />
        </mxCell>
        <mxCell id="RrYDVx2lHr9lMabAJrdJ-146" style="edgeStyle=none;rounded=0;orthogonalLoop=1;jettySize=auto;html=1;startArrow=none;startFill=0;endArrow=none;endFill=0;entryX=0;entryY=0.5;entryDx=0;entryDy=0;exitX=1;exitY=0.5;exitDx=0;exitDy=0;" parent="RrYDVx2lHr9lMabAJrdJ-170" source="RrYDVx2lHr9lMabAJrdJ-158" target="RrYDVx2lHr9lMabAJrdJ-145" edge="1">
          <mxGeometry relative="1" as="geometry" />
        </mxCell>
        <mxCell id="RrYDVx2lHr9lMabAJrdJ-148" style="edgeStyle=none;rounded=0;orthogonalLoop=1;jettySize=auto;html=1;startArrow=none;startFill=0;endArrow=none;endFill=0;exitX=1;exitY=0.5;exitDx=0;exitDy=0;entryX=0;entryY=0.5;entryDx=0;entryDy=0;" parent="RrYDVx2lHr9lMabAJrdJ-170" source="RrYDVx2lHr9lMabAJrdJ-159" target="RrYDVx2lHr9lMabAJrdJ-145" edge="1">
          <mxGeometry relative="1" as="geometry" />
        </mxCell>
        <mxCell id="RrYDVx2lHr9lMabAJrdJ-150" style="edgeStyle=none;rounded=0;orthogonalLoop=1;jettySize=auto;html=1;entryX=0;entryY=0.5;entryDx=0;entryDy=0;startArrow=none;startFill=0;endArrow=none;endFill=0;exitX=1;exitY=0.5;exitDx=0;exitDy=0;" parent="RrYDVx2lHr9lMabAJrdJ-170" source="RrYDVx2lHr9lMabAJrdJ-160" target="RrYDVx2lHr9lMabAJrdJ-145" edge="1">
          <mxGeometry relative="1" as="geometry" />
        </mxCell>
        <mxCell id="RrYDVx2lHr9lMabAJrdJ-152" value="name" style="ellipse;whiteSpace=wrap;html=1;fontFamily=Open Sans;fontSource=https%3A%2F%2Ffonts.googleapis.com%2Fcss%3Ffamily%3DOpen%2BSans;fillColor=#1EA5A5;" parent="RrYDVx2lHr9lMabAJrdJ-170" vertex="1">
          <mxGeometry x="760" y="511.82000000000016" width="80" height="40" as="geometry" />
        </mxCell>
        <mxCell id="RrYDVx2lHr9lMabAJrdJ-135" style="edgeStyle=none;rounded=0;orthogonalLoop=1;jettySize=auto;html=1;entryX=0;entryY=0.5;entryDx=0;entryDy=0;endArrow=none;endFill=0;exitX=1;exitY=0.5;exitDx=0;exitDy=0;" parent="RrYDVx2lHr9lMabAJrdJ-170" source="RrYDVx2lHr9lMabAJrdJ-137" target="RrYDVx2lHr9lMabAJrdJ-152" edge="1">
          <mxGeometry relative="1" as="geometry" />
        </mxCell>
        <mxCell id="RrYDVx2lHr9lMabAJrdJ-153" value="slug" style="ellipse;whiteSpace=wrap;html=1;fontFamily=Open Sans;fontSource=https%3A%2F%2Ffonts.googleapis.com%2Fcss%3Ffamily%3DOpen%2BSans;fillColor=#1EA5A5;" parent="RrYDVx2lHr9lMabAJrdJ-170" vertex="1">
          <mxGeometry x="760" y="555" width="80" height="40" as="geometry" />
        </mxCell>
        <mxCell id="RrYDVx2lHr9lMabAJrdJ-136" style="edgeStyle=none;rounded=0;orthogonalLoop=1;jettySize=auto;html=1;entryX=0;entryY=0.5;entryDx=0;entryDy=0;endArrow=none;endFill=0;exitX=1;exitY=0.5;exitDx=0;exitDy=0;" parent="RrYDVx2lHr9lMabAJrdJ-170" source="RrYDVx2lHr9lMabAJrdJ-137" target="RrYDVx2lHr9lMabAJrdJ-153" edge="1">
          <mxGeometry relative="1" as="geometry" />
        </mxCell>
        <mxCell id="RrYDVx2lHr9lMabAJrdJ-156" value="&lt;font data-font-src=&quot;https://fonts.googleapis.com/css?family=Open+Sans&quot; face=&quot;Open Sans&quot;&gt;address&lt;/font&gt;" style="ellipse;whiteSpace=wrap;html=1;fillColor=#1EA5A5;" parent="RrYDVx2lHr9lMabAJrdJ-170" vertex="1">
          <mxGeometry y="198.2500000000001" width="80" height="40" as="geometry" />
        </mxCell>
        <mxCell id="RrYDVx2lHr9lMabAJrdJ-157" value="&lt;font data-font-src=&quot;https://fonts.googleapis.com/css?family=Open+Sans&quot; face=&quot;Open Sans&quot;&gt;from&lt;/font&gt;" style="ellipse;whiteSpace=wrap;html=1;fillColor=#1EA5A5;" parent="RrYDVx2lHr9lMabAJrdJ-170" vertex="1">
          <mxGeometry y="250" width="80" height="40" as="geometry" />
        </mxCell>
        <mxCell id="RrYDVx2lHr9lMabAJrdJ-158" value="&lt;font data-font-src=&quot;https://fonts.googleapis.com/css?family=Open+Sans&quot; face=&quot;Open Sans&quot;&gt;id&lt;/font&gt;" style="ellipse;whiteSpace=wrap;html=1;fillColor=#1EA5A5;" parent="RrYDVx2lHr9lMabAJrdJ-170" vertex="1">
          <mxGeometry y="392.1600000000001" width="80" height="40" as="geometry" />
        </mxCell>
        <mxCell id="RrYDVx2lHr9lMabAJrdJ-159" value="&lt;font data-font-src=&quot;https://fonts.googleapis.com/css?family=Open+Sans&quot; face=&quot;Open Sans&quot;&gt;name&lt;/font&gt;" style="ellipse;whiteSpace=wrap;html=1;fillColor=#1EA5A5;" parent="RrYDVx2lHr9lMabAJrdJ-170" vertex="1">
          <mxGeometry y="443.90999999999997" width="80" height="40" as="geometry" />
        </mxCell>
        <mxCell id="RrYDVx2lHr9lMabAJrdJ-160" value="&lt;font data-font-src=&quot;https://fonts.googleapis.com/css?family=Open+Sans&quot; face=&quot;Open Sans&quot;&gt;startYear&lt;/font&gt;" style="ellipse;whiteSpace=wrap;html=1;fillColor=#1EA5A5;" parent="RrYDVx2lHr9lMabAJrdJ-170" vertex="1">
          <mxGeometry y="495.03" width="80" height="40" as="geometry" />
        </mxCell>
        <mxCell id="RrYDVx2lHr9lMabAJrdJ-168" value="name" style="ellipse;whiteSpace=wrap;html=1;fontFamily=Open Sans;fontSource=https%3A%2F%2Ffonts.googleapis.com%2Fcss%3Ffamily%3DOpen%2BSans;fillColor=#1EA5A5;" parent="RrYDVx2lHr9lMabAJrdJ-170" vertex="1">
          <mxGeometry x="760" y="609.5900000000001" width="80" height="40" as="geometry" />
        </mxCell>
        <mxCell id="RrYDVx2lHr9lMabAJrdJ-140" style="edgeStyle=none;rounded=0;orthogonalLoop=1;jettySize=auto;html=1;entryX=0;entryY=0.5;entryDx=0;entryDy=0;endArrow=none;endFill=0;exitX=1;exitY=0.5;exitDx=0;exitDy=0;" parent="RrYDVx2lHr9lMabAJrdJ-170" source="RrYDVx2lHr9lMabAJrdJ-141" target="RrYDVx2lHr9lMabAJrdJ-168" edge="1">
          <mxGeometry relative="1" as="geometry">
            <mxPoint x="768.5" y="689.1099999999999" as="targetPoint" />
          </mxGeometry>
        </mxCell>
        <mxCell id="RrYDVx2lHr9lMabAJrdJ-169" value="slug" style="ellipse;whiteSpace=wrap;html=1;fontFamily=Open Sans;fontSource=https%3A%2F%2Ffonts.googleapis.com%2Fcss%3Ffamily%3DOpen%2BSans;fillColor=#1EA5A5;" parent="RrYDVx2lHr9lMabAJrdJ-170" vertex="1">
          <mxGeometry x="760" y="652.77" width="80" height="40" as="geometry" />
        </mxCell>
        <mxCell id="RrYDVx2lHr9lMabAJrdJ-139" style="edgeStyle=none;rounded=0;orthogonalLoop=1;jettySize=auto;html=1;entryX=0;entryY=0.5;entryDx=0;entryDy=0;endArrow=none;endFill=0;exitX=1;exitY=0.5;exitDx=0;exitDy=0;" parent="RrYDVx2lHr9lMabAJrdJ-170" source="RrYDVx2lHr9lMabAJrdJ-141" target="RrYDVx2lHr9lMabAJrdJ-169" edge="1">
          <mxGeometry relative="1" as="geometry">
            <mxPoint x="768.5" y="649" as="targetPoint" />
          </mxGeometry>
        </mxCell>
        <mxCell id="RrYDVx2lHr9lMabAJrdJ-329" value="" style="group" parent="1" vertex="1" connectable="0">
          <mxGeometry x="160" y="585" width="1120.25" height="595.0000000000002" as="geometry" />
        </mxCell>
        <mxCell id="RrYDVx2lHr9lMabAJrdJ-171" value="Player" style="whiteSpace=wrap;html=1;fontFamily=Open Sans;fontSource=https%3A%2F%2Ffonts.googleapis.com%2Fcss%3Ffamily%3DOpen%2BSans;fontStyle=1;fillColor=#A5D7D2;" parent="RrYDVx2lHr9lMabAJrdJ-329" vertex="1">
          <mxGeometry x="390" y="236.47000000000014" width="120" height="40" as="geometry" />
        </mxCell>
        <mxCell id="RrYDVx2lHr9lMabAJrdJ-172" style="edgeStyle=none;rounded=0;orthogonalLoop=1;jettySize=auto;html=1;entryX=0.5;entryY=1;entryDx=0;entryDy=0;startArrow=none;startFill=0;endArrow=none;endFill=0;exitX=0.5;exitY=0;exitDx=0;exitDy=0;" parent="RrYDVx2lHr9lMabAJrdJ-329" source="RrYDVx2lHr9lMabAJrdJ-173" target="RrYDVx2lHr9lMabAJrdJ-171" edge="1">
          <mxGeometry relative="1" as="geometry" />
        </mxCell>
        <mxCell id="RrYDVx2lHr9lMabAJrdJ-173" value="leagueID" style="ellipse;whiteSpace=wrap;html=1;flipH=1;fontFamily=Open Sans;fontSource=https%3A%2F%2Ffonts.googleapis.com%2Fcss%3Ffamily%3DOpen%2BSans;fillColor=#1EA5A5;" parent="RrYDVx2lHr9lMabAJrdJ-329" vertex="1">
          <mxGeometry x="320" y="309.3700000000001" width="80" height="40" as="geometry" />
        </mxCell>
        <mxCell id="RrYDVx2lHr9lMabAJrdJ-174" style="edgeStyle=none;rounded=0;orthogonalLoop=1;jettySize=auto;html=1;entryX=0.5;entryY=1;entryDx=0;entryDy=0;startArrow=none;startFill=0;endArrow=none;endFill=0;" parent="RrYDVx2lHr9lMabAJrdJ-329" source="RrYDVx2lHr9lMabAJrdJ-175" target="RrYDVx2lHr9lMabAJrdJ-171" edge="1">
          <mxGeometry relative="1" as="geometry" />
        </mxCell>
        <mxCell id="RrYDVx2lHr9lMabAJrdJ-175" value="seasonID" style="ellipse;whiteSpace=wrap;html=1;flipH=1;fontFamily=Open Sans;fontSource=https%3A%2F%2Ffonts.googleapis.com%2Fcss%3Ffamily%3DOpen%2BSans;fillColor=#1EA5A5;" parent="RrYDVx2lHr9lMabAJrdJ-329" vertex="1">
          <mxGeometry x="410" y="309.3700000000001" width="80" height="40" as="geometry" />
        </mxCell>
        <mxCell id="RrYDVx2lHr9lMabAJrdJ-176" style="edgeStyle=none;rounded=0;orthogonalLoop=1;jettySize=auto;html=1;startArrow=none;startFill=0;endArrow=none;endFill=0;entryX=0.5;entryY=1;entryDx=0;entryDy=0;exitX=0.5;exitY=0;exitDx=0;exitDy=0;" parent="RrYDVx2lHr9lMabAJrdJ-329" source="RrYDVx2lHr9lMabAJrdJ-177" target="RrYDVx2lHr9lMabAJrdJ-171" edge="1">
          <mxGeometry relative="1" as="geometry" />
        </mxCell>
        <mxCell id="RrYDVx2lHr9lMabAJrdJ-177" value="seasonYear" style="ellipse;whiteSpace=wrap;html=1;flipH=1;fontFamily=Open Sans;fontSource=https%3A%2F%2Ffonts.googleapis.com%2Fcss%3Ffamily%3DOpen%2BSans;fillColor=#1EA5A5;" parent="RrYDVx2lHr9lMabAJrdJ-329" vertex="1">
          <mxGeometry x="500" y="309.3700000000001" width="80" height="40" as="geometry" />
        </mxCell>
        <mxCell id="RrYDVx2lHr9lMabAJrdJ-178" style="edgeStyle=none;rounded=0;orthogonalLoop=1;jettySize=auto;html=1;startArrow=none;startFill=0;endArrow=none;endFill=0;" parent="RrYDVx2lHr9lMabAJrdJ-329" source="RrYDVx2lHr9lMabAJrdJ-179" target="RrYDVx2lHr9lMabAJrdJ-171" edge="1">
          <mxGeometry relative="1" as="geometry" />
        </mxCell>
        <mxCell id="RrYDVx2lHr9lMabAJrdJ-179" value="player" style="ellipse;whiteSpace=wrap;html=1;fontFamily=Open Sans;fontSource=https%3A%2F%2Ffonts.googleapis.com%2Fcss%3Ffamily%3DOpen%2BSans;fillColor=#1EA5A5;" parent="RrYDVx2lHr9lMabAJrdJ-329" vertex="1">
          <mxGeometry x="270" y="236.87000000000012" width="80" height="40" as="geometry" />
        </mxCell>
        <mxCell id="RrYDVx2lHr9lMabAJrdJ-180" style="edgeStyle=none;rounded=0;orthogonalLoop=1;jettySize=auto;html=1;entryX=1;entryY=0.5;entryDx=0;entryDy=0;startArrow=none;startFill=0;endArrow=none;endFill=0;" parent="RrYDVx2lHr9lMabAJrdJ-329" source="RrYDVx2lHr9lMabAJrdJ-181" target="RrYDVx2lHr9lMabAJrdJ-171" edge="1">
          <mxGeometry relative="1" as="geometry" />
        </mxCell>
        <mxCell id="RrYDVx2lHr9lMabAJrdJ-181" value="statistics" style="ellipse;whiteSpace=wrap;html=1;fontFamily=Open Sans;fontSource=https%3A%2F%2Ffonts.googleapis.com%2Fcss%3Ffamily%3DOpen%2BSans;fillColor=#1EA5A5;" parent="RrYDVx2lHr9lMabAJrdJ-329" vertex="1">
          <mxGeometry x="549" y="236.47000000000014" width="80" height="40" as="geometry" />
        </mxCell>
        <mxCell id="RrYDVx2lHr9lMabAJrdJ-182" style="edgeStyle=none;rounded=0;orthogonalLoop=1;jettySize=auto;html=1;startArrow=none;startFill=0;endArrow=none;endFill=0;entryX=0;entryY=0.5;entryDx=0;entryDy=0;exitX=1;exitY=0.5;exitDx=0;exitDy=0;fontFamily=Open Sans;fontSource=https%3A%2F%2Ffonts.googleapis.com%2Fcss%3Ffamily%3DOpen%2BSans;" parent="RrYDVx2lHr9lMabAJrdJ-329" source="RrYDVx2lHr9lMabAJrdJ-183" target="RrYDVx2lHr9lMabAJrdJ-179" edge="1">
          <mxGeometry relative="1" as="geometry" />
        </mxCell>
        <mxCell id="RrYDVx2lHr9lMabAJrdJ-183" value="&lt;u&gt;id&lt;/u&gt;" style="ellipse;whiteSpace=wrap;html=1;fontFamily=Open Sans;fontSource=https%3A%2F%2Ffonts.googleapis.com%2Fcss%3Ffamily%3DOpen%2BSans;fillColor=#1EA5A5;" parent="RrYDVx2lHr9lMabAJrdJ-329" vertex="1">
          <mxGeometry x="105" y="57.47000000000014" width="80" height="40" as="geometry" />
        </mxCell>
        <mxCell id="RrYDVx2lHr9lMabAJrdJ-184" style="edgeStyle=none;rounded=0;orthogonalLoop=1;jettySize=auto;html=1;startArrow=none;startFill=0;endArrow=none;endFill=0;entryX=0;entryY=0.5;entryDx=0;entryDy=0;exitX=1;exitY=0.5;exitDx=0;exitDy=0;fontFamily=Open Sans;fontSource=https%3A%2F%2Ffonts.googleapis.com%2Fcss%3Ffamily%3DOpen%2BSans;" parent="RrYDVx2lHr9lMabAJrdJ-329" source="RrYDVx2lHr9lMabAJrdJ-185" target="RrYDVx2lHr9lMabAJrdJ-179" edge="1">
          <mxGeometry relative="1" as="geometry" />
        </mxCell>
        <mxCell id="RrYDVx2lHr9lMabAJrdJ-185" value="name" style="ellipse;whiteSpace=wrap;html=1;fontFamily=Open Sans;fontSource=https%3A%2F%2Ffonts.googleapis.com%2Fcss%3Ffamily%3DOpen%2BSans;fillColor=#1EA5A5;" parent="RrYDVx2lHr9lMabAJrdJ-329" vertex="1">
          <mxGeometry x="105" y="103" width="80" height="40" as="geometry" />
        </mxCell>
        <mxCell id="RrYDVx2lHr9lMabAJrdJ-186" style="edgeStyle=none;rounded=0;orthogonalLoop=1;jettySize=auto;html=1;entryX=0;entryY=0.5;entryDx=0;entryDy=0;startArrow=none;startFill=0;endArrow=none;endFill=0;exitX=1;exitY=0.5;exitDx=0;exitDy=0;fontFamily=Open Sans;fontSource=https%3A%2F%2Ffonts.googleapis.com%2Fcss%3Ffamily%3DOpen%2BSans;" parent="RrYDVx2lHr9lMabAJrdJ-329" source="RrYDVx2lHr9lMabAJrdJ-187" target="RrYDVx2lHr9lMabAJrdJ-179" edge="1">
          <mxGeometry relative="1" as="geometry" />
        </mxCell>
        <mxCell id="RrYDVx2lHr9lMabAJrdJ-187" value="firstname" style="ellipse;whiteSpace=wrap;html=1;fontFamily=Open Sans;fontSource=https%3A%2F%2Ffonts.googleapis.com%2Fcss%3Ffamily%3DOpen%2BSans;fillColor=#1EA5A5;" parent="RrYDVx2lHr9lMabAJrdJ-329" vertex="1">
          <mxGeometry x="105" y="148" width="80" height="40" as="geometry" />
        </mxCell>
        <mxCell id="RrYDVx2lHr9lMabAJrdJ-188" style="edgeStyle=none;rounded=0;orthogonalLoop=1;jettySize=auto;html=1;startArrow=none;startFill=0;endArrow=none;endFill=0;entryX=0;entryY=0.5;entryDx=0;entryDy=0;exitX=1;exitY=0.5;exitDx=0;exitDy=0;fontFamily=Open Sans;fontSource=https%3A%2F%2Ffonts.googleapis.com%2Fcss%3Ffamily%3DOpen%2BSans;" parent="RrYDVx2lHr9lMabAJrdJ-329" source="RrYDVx2lHr9lMabAJrdJ-189" target="RrYDVx2lHr9lMabAJrdJ-179" edge="1">
          <mxGeometry relative="1" as="geometry" />
        </mxCell>
        <mxCell id="RrYDVx2lHr9lMabAJrdJ-189" value="lastname" style="ellipse;whiteSpace=wrap;html=1;fontFamily=Open Sans;fontSource=https%3A%2F%2Ffonts.googleapis.com%2Fcss%3Ffamily%3DOpen%2BSans;fillColor=#1EA5A5;" parent="RrYDVx2lHr9lMabAJrdJ-329" vertex="1">
          <mxGeometry x="105" y="193" width="80" height="40" as="geometry" />
        </mxCell>
        <mxCell id="RrYDVx2lHr9lMabAJrdJ-190" style="edgeStyle=none;rounded=0;orthogonalLoop=1;jettySize=auto;html=1;startArrow=none;startFill=0;endArrow=none;endFill=0;exitX=1;exitY=0.5;exitDx=0;exitDy=0;entryX=0;entryY=0.5;entryDx=0;entryDy=0;fontFamily=Open Sans;fontSource=https%3A%2F%2Ffonts.googleapis.com%2Fcss%3Ffamily%3DOpen%2BSans;" parent="RrYDVx2lHr9lMabAJrdJ-329" source="RrYDVx2lHr9lMabAJrdJ-191" target="RrYDVx2lHr9lMabAJrdJ-179" edge="1">
          <mxGeometry relative="1" as="geometry" />
        </mxCell>
        <mxCell id="RrYDVx2lHr9lMabAJrdJ-191" value="age" style="ellipse;whiteSpace=wrap;html=1;fontFamily=Open Sans;fontSource=https%3A%2F%2Ffonts.googleapis.com%2Fcss%3Ffamily%3DOpen%2BSans;fillColor=#1EA5A5;" parent="RrYDVx2lHr9lMabAJrdJ-329" vertex="1">
          <mxGeometry x="105" y="419" width="80" height="40" as="geometry" />
        </mxCell>
        <mxCell id="RrYDVx2lHr9lMabAJrdJ-192" style="edgeStyle=none;rounded=0;orthogonalLoop=1;jettySize=auto;html=1;startArrow=none;startFill=0;endArrow=none;endFill=0;fontFamily=Open Sans;fontSource=https%3A%2F%2Ffonts.googleapis.com%2Fcss%3Ffamily%3DOpen%2BSans;entryX=0;entryY=0.5;entryDx=0;entryDy=0;" parent="RrYDVx2lHr9lMabAJrdJ-329" source="RrYDVx2lHr9lMabAJrdJ-193" target="RrYDVx2lHr9lMabAJrdJ-179" edge="1">
          <mxGeometry relative="1" as="geometry" />
        </mxCell>
        <mxCell id="RrYDVx2lHr9lMabAJrdJ-193" value="birth" style="ellipse;whiteSpace=wrap;html=1;fontFamily=Open Sans;fontSource=https%3A%2F%2Ffonts.googleapis.com%2Fcss%3Ffamily%3DOpen%2BSans;fillColor=#1EA5A5;" parent="RrYDVx2lHr9lMabAJrdJ-329" vertex="1">
          <mxGeometry x="105" y="238" width="80" height="40" as="geometry" />
        </mxCell>
        <mxCell id="RrYDVx2lHr9lMabAJrdJ-194" style="edgeStyle=none;rounded=0;orthogonalLoop=1;jettySize=auto;html=1;startArrow=none;startFill=0;endArrow=none;endFill=0;fontFamily=Open Sans;fontSource=https%3A%2F%2Ffonts.googleapis.com%2Fcss%3Ffamily%3DOpen%2BSans;entryX=0;entryY=0.5;entryDx=0;entryDy=0;" parent="RrYDVx2lHr9lMabAJrdJ-329" source="RrYDVx2lHr9lMabAJrdJ-195" target="RrYDVx2lHr9lMabAJrdJ-193" edge="1">
          <mxGeometry relative="1" as="geometry" />
        </mxCell>
        <mxCell id="RrYDVx2lHr9lMabAJrdJ-195" value="date" style="ellipse;whiteSpace=wrap;html=1;fontFamily=Open Sans;fontSource=https%3A%2F%2Ffonts.googleapis.com%2Fcss%3Ffamily%3DOpen%2BSans;fillColor=#1EA5A5;" parent="RrYDVx2lHr9lMabAJrdJ-329" vertex="1">
          <mxGeometry y="238.13" width="80" height="40" as="geometry" />
        </mxCell>
        <mxCell id="RrYDVx2lHr9lMabAJrdJ-196" style="edgeStyle=none;rounded=0;orthogonalLoop=1;jettySize=auto;html=1;startArrow=none;startFill=0;endArrow=none;endFill=0;exitX=1;exitY=0.5;exitDx=0;exitDy=0;entryX=0;entryY=0.5;entryDx=0;entryDy=0;fontFamily=Open Sans;fontSource=https%3A%2F%2Ffonts.googleapis.com%2Fcss%3Ffamily%3DOpen%2BSans;" parent="RrYDVx2lHr9lMabAJrdJ-329" source="RrYDVx2lHr9lMabAJrdJ-197" target="RrYDVx2lHr9lMabAJrdJ-179" edge="1">
          <mxGeometry relative="1" as="geometry" />
        </mxCell>
        <mxCell id="RrYDVx2lHr9lMabAJrdJ-197" value="height" style="ellipse;whiteSpace=wrap;html=1;fontFamily=Open Sans;fontSource=https%3A%2F%2Ffonts.googleapis.com%2Fcss%3Ffamily%3DOpen%2BSans;fillColor=#1EA5A5;" parent="RrYDVx2lHr9lMabAJrdJ-329" vertex="1">
          <mxGeometry x="105" y="329" width="80" height="40" as="geometry" />
        </mxCell>
        <mxCell id="RrYDVx2lHr9lMabAJrdJ-198" style="edgeStyle=none;rounded=0;orthogonalLoop=1;jettySize=auto;html=1;startArrow=none;startFill=0;endArrow=none;endFill=0;exitX=1;exitY=0.5;exitDx=0;exitDy=0;entryX=0;entryY=0.5;entryDx=0;entryDy=0;fontFamily=Open Sans;fontSource=https%3A%2F%2Ffonts.googleapis.com%2Fcss%3Ffamily%3DOpen%2BSans;" parent="RrYDVx2lHr9lMabAJrdJ-329" source="RrYDVx2lHr9lMabAJrdJ-199" target="RrYDVx2lHr9lMabAJrdJ-179" edge="1">
          <mxGeometry relative="1" as="geometry" />
        </mxCell>
        <mxCell id="RrYDVx2lHr9lMabAJrdJ-199" value="nationality" style="ellipse;whiteSpace=wrap;html=1;fontFamily=Open Sans;fontSource=https%3A%2F%2Ffonts.googleapis.com%2Fcss%3Ffamily%3DOpen%2BSans;fillColor=#1EA5A5;" parent="RrYDVx2lHr9lMabAJrdJ-329" vertex="1">
          <mxGeometry x="105" y="465" width="80" height="40" as="geometry" />
        </mxCell>
        <mxCell id="RrYDVx2lHr9lMabAJrdJ-200" style="edgeStyle=none;rounded=0;orthogonalLoop=1;jettySize=auto;html=1;startArrow=none;startFill=0;endArrow=none;endFill=0;entryX=0;entryY=0.5;entryDx=0;entryDy=0;exitX=1;exitY=0.5;exitDx=0;exitDy=0;fontFamily=Open Sans;fontSource=https%3A%2F%2Ffonts.googleapis.com%2Fcss%3Ffamily%3DOpen%2BSans;" parent="RrYDVx2lHr9lMabAJrdJ-329" source="RrYDVx2lHr9lMabAJrdJ-201" target="RrYDVx2lHr9lMabAJrdJ-193" edge="1">
          <mxGeometry relative="1" as="geometry" />
        </mxCell>
        <mxCell id="RrYDVx2lHr9lMabAJrdJ-201" value="place" style="ellipse;whiteSpace=wrap;html=1;fontFamily=Open Sans;fontSource=https%3A%2F%2Ffonts.googleapis.com%2Fcss%3Ffamily%3DOpen%2BSans;fillColor=#1EA5A5;" parent="RrYDVx2lHr9lMabAJrdJ-329" vertex="1">
          <mxGeometry y="284.0000000000001" width="80" height="40" as="geometry" />
        </mxCell>
        <mxCell id="RrYDVx2lHr9lMabAJrdJ-202" style="edgeStyle=none;rounded=0;orthogonalLoop=1;jettySize=auto;html=1;startArrow=none;startFill=0;endArrow=none;endFill=0;exitX=1;exitY=0.5;exitDx=0;exitDy=0;entryX=0;entryY=0.5;entryDx=0;entryDy=0;fontFamily=Open Sans;fontSource=https%3A%2F%2Ffonts.googleapis.com%2Fcss%3Ffamily%3DOpen%2BSans;" parent="RrYDVx2lHr9lMabAJrdJ-329" source="RrYDVx2lHr9lMabAJrdJ-203" target="RrYDVx2lHr9lMabAJrdJ-193" edge="1">
          <mxGeometry relative="1" as="geometry" />
        </mxCell>
        <mxCell id="RrYDVx2lHr9lMabAJrdJ-203" value="country" style="ellipse;whiteSpace=wrap;html=1;fontFamily=Open Sans;fontSource=https%3A%2F%2Ffonts.googleapis.com%2Fcss%3Ffamily%3DOpen%2BSans;fillColor=#1EA5A5;" parent="RrYDVx2lHr9lMabAJrdJ-329" vertex="1">
          <mxGeometry y="192.1300000000001" width="80" height="40" as="geometry" />
        </mxCell>
        <mxCell id="RrYDVx2lHr9lMabAJrdJ-204" style="edgeStyle=none;rounded=0;orthogonalLoop=1;jettySize=auto;html=1;startArrow=none;startFill=0;endArrow=none;endFill=0;exitX=1;exitY=0.5;exitDx=0;exitDy=0;entryX=0;entryY=0.5;entryDx=0;entryDy=0;fontFamily=Open Sans;fontSource=https%3A%2F%2Ffonts.googleapis.com%2Fcss%3Ffamily%3DOpen%2BSans;" parent="RrYDVx2lHr9lMabAJrdJ-329" source="RrYDVx2lHr9lMabAJrdJ-205" target="RrYDVx2lHr9lMabAJrdJ-179" edge="1">
          <mxGeometry relative="1" as="geometry" />
        </mxCell>
        <mxCell id="RrYDVx2lHr9lMabAJrdJ-205" value="photo" style="ellipse;whiteSpace=wrap;html=1;fontFamily=Open Sans;fontSource=https%3A%2F%2Ffonts.googleapis.com%2Fcss%3Ffamily%3DOpen%2BSans;fillColor=#1EA5A5;" parent="RrYDVx2lHr9lMabAJrdJ-329" vertex="1">
          <mxGeometry x="105" y="284" width="80" height="40" as="geometry" />
        </mxCell>
        <mxCell id="RrYDVx2lHr9lMabAJrdJ-206" style="edgeStyle=none;rounded=0;orthogonalLoop=1;jettySize=auto;html=1;startArrow=none;startFill=0;endArrow=none;endFill=0;exitX=0;exitY=0.5;exitDx=0;exitDy=0;entryX=1;entryY=0.5;entryDx=0;entryDy=0;" parent="RrYDVx2lHr9lMabAJrdJ-329" source="RrYDVx2lHr9lMabAJrdJ-211" target="RrYDVx2lHr9lMabAJrdJ-181" edge="1">
          <mxGeometry relative="1" as="geometry" />
        </mxCell>
        <mxCell id="RrYDVx2lHr9lMabAJrdJ-211" value="goals" style="ellipse;whiteSpace=wrap;html=1;fontFamily=Open Sans;fontSource=https%3A%2F%2Ffonts.googleapis.com%2Fcss%3Ffamily%3DOpen%2BSans;fillColor=#1EA5A5;" parent="RrYDVx2lHr9lMabAJrdJ-329" vertex="1">
          <mxGeometry x="800.25" y="84.17000000000007" width="50" height="30" as="geometry" />
        </mxCell>
        <mxCell id="RrYDVx2lHr9lMabAJrdJ-212" style="edgeStyle=none;rounded=0;orthogonalLoop=1;jettySize=auto;html=1;startArrow=none;startFill=0;endArrow=none;endFill=0;exitX=0;exitY=0.5;exitDx=0;exitDy=0;entryX=1;entryY=0.5;entryDx=0;entryDy=0;" parent="RrYDVx2lHr9lMabAJrdJ-329" source="RrYDVx2lHr9lMabAJrdJ-215" target="RrYDVx2lHr9lMabAJrdJ-181" edge="1">
          <mxGeometry relative="1" as="geometry" />
        </mxCell>
        <mxCell id="RrYDVx2lHr9lMabAJrdJ-215" value="duels" style="ellipse;whiteSpace=wrap;html=1;fontFamily=Open Sans;fontSource=https%3A%2F%2Ffonts.googleapis.com%2Fcss%3Ffamily%3DOpen%2BSans;fillColor=#1EA5A5;" parent="RrYDVx2lHr9lMabAJrdJ-329" vertex="1">
          <mxGeometry x="797.5" y="413.1200000000001" width="50" height="30" as="geometry" />
        </mxCell>
        <mxCell id="RrYDVx2lHr9lMabAJrdJ-216" style="edgeStyle=none;rounded=0;orthogonalLoop=1;jettySize=auto;html=1;startArrow=none;startFill=0;endArrow=none;endFill=0;exitX=0;exitY=0.5;exitDx=0;exitDy=0;entryX=0.5;entryY=1;entryDx=0;entryDy=0;" parent="RrYDVx2lHr9lMabAJrdJ-329" source="RrYDVx2lHr9lMabAJrdJ-220" target="RrYDVx2lHr9lMabAJrdJ-181" edge="1">
          <mxGeometry relative="1" as="geometry">
            <mxPoint x="805" y="454.47" as="sourcePoint" />
          </mxGeometry>
        </mxCell>
        <mxCell id="RrYDVx2lHr9lMabAJrdJ-219" style="edgeStyle=none;rounded=0;orthogonalLoop=1;jettySize=auto;html=1;entryX=0.5;entryY=0;entryDx=0;entryDy=0;endArrow=none;endFill=0;exitX=0.5;exitY=1;exitDx=0;exitDy=0;" parent="RrYDVx2lHr9lMabAJrdJ-329" target="RrYDVx2lHr9lMabAJrdJ-298" edge="1">
          <mxGeometry relative="1" as="geometry">
            <mxPoint x="821.75" y="484.47" as="sourcePoint" />
          </mxGeometry>
        </mxCell>
        <mxCell id="RrYDVx2lHr9lMabAJrdJ-220" value="substitutes" style="ellipse;whiteSpace=wrap;html=1;fontFamily=Open Sans;fontSource=https%3A%2F%2Ffonts.googleapis.com%2Fcss%3Ffamily%3DOpen%2BSans;fillColor=#1EA5A5;" parent="RrYDVx2lHr9lMabAJrdJ-329" vertex="1">
          <mxGeometry x="787.5" y="454.47" width="70" height="30" as="geometry" />
        </mxCell>
        <mxCell id="RrYDVx2lHr9lMabAJrdJ-221" style="edgeStyle=none;rounded=0;orthogonalLoop=1;jettySize=auto;html=1;entryX=0.5;entryY=1;entryDx=0;entryDy=0;startArrow=none;startFill=0;endArrow=none;endFill=0;" parent="RrYDVx2lHr9lMabAJrdJ-329" source="RrYDVx2lHr9lMabAJrdJ-227" target="RrYDVx2lHr9lMabAJrdJ-181" edge="1">
          <mxGeometry relative="1" as="geometry" />
        </mxCell>
        <mxCell id="RrYDVx2lHr9lMabAJrdJ-227" value="penalty" style="ellipse;whiteSpace=wrap;html=1;fontFamily=Open Sans;fontSource=https%3A%2F%2Ffonts.googleapis.com%2Fcss%3Ffamily%3DOpen%2BSans;fillColor=#1EA5A5;" parent="RrYDVx2lHr9lMabAJrdJ-329" vertex="1">
          <mxGeometry x="565" y="394.47" width="50" height="30" as="geometry" />
        </mxCell>
        <mxCell id="RrYDVx2lHr9lMabAJrdJ-228" style="edgeStyle=none;rounded=0;orthogonalLoop=1;jettySize=auto;html=1;startArrow=none;startFill=0;endArrow=none;endFill=0;exitX=0.5;exitY=1;exitDx=0;exitDy=0;entryX=0.5;entryY=0;entryDx=0;entryDy=0;" parent="RrYDVx2lHr9lMabAJrdJ-329" source="RrYDVx2lHr9lMabAJrdJ-234" target="RrYDVx2lHr9lMabAJrdJ-181" edge="1">
          <mxGeometry relative="1" as="geometry">
            <mxPoint x="595" y="204.47000000000003" as="sourcePoint" />
          </mxGeometry>
        </mxCell>
        <mxCell id="RrYDVx2lHr9lMabAJrdJ-234" value="league" style="ellipse;whiteSpace=wrap;html=1;fontFamily=Open Sans;fontSource=https%3A%2F%2Ffonts.googleapis.com%2Fcss%3Ffamily%3DOpen%2BSans;fillColor=#1EA5A5;" parent="RrYDVx2lHr9lMabAJrdJ-329" vertex="1">
          <mxGeometry x="533" y="170.0000000000001" width="50" height="30" as="geometry" />
        </mxCell>
        <mxCell id="RrYDVx2lHr9lMabAJrdJ-235" style="edgeStyle=none;rounded=0;orthogonalLoop=1;jettySize=auto;html=1;entryX=0.5;entryY=0;entryDx=0;entryDy=0;startArrow=none;startFill=0;endArrow=none;endFill=0;exitX=0.5;exitY=1;exitDx=0;exitDy=0;" parent="RrYDVx2lHr9lMabAJrdJ-329" source="RrYDVx2lHr9lMabAJrdJ-236" target="RrYDVx2lHr9lMabAJrdJ-181" edge="1">
          <mxGeometry relative="1" as="geometry" />
        </mxCell>
        <mxCell id="RrYDVx2lHr9lMabAJrdJ-236" value="team" style="ellipse;whiteSpace=wrap;html=1;fontFamily=Open Sans;fontSource=https%3A%2F%2Ffonts.googleapis.com%2Fcss%3Ffamily%3DOpen%2BSans;fillColor=#1EA5A5;" parent="RrYDVx2lHr9lMabAJrdJ-329" vertex="1">
          <mxGeometry x="390" y="167.47000000000003" width="50" height="30" as="geometry" />
        </mxCell>
        <mxCell id="RrYDVx2lHr9lMabAJrdJ-237" style="edgeStyle=none;rounded=0;orthogonalLoop=1;jettySize=auto;html=1;entryX=1;entryY=0.5;entryDx=0;entryDy=0;startArrow=none;startFill=0;endArrow=none;endFill=0;exitX=0;exitY=0.5;exitDx=0;exitDy=0;" parent="RrYDVx2lHr9lMabAJrdJ-329" source="RrYDVx2lHr9lMabAJrdJ-241" target="RrYDVx2lHr9lMabAJrdJ-181" edge="1">
          <mxGeometry relative="1" as="geometry" />
        </mxCell>
        <mxCell id="RrYDVx2lHr9lMabAJrdJ-241" value="cards" style="ellipse;whiteSpace=wrap;html=1;fontFamily=Open Sans;fontSource=https%3A%2F%2Ffonts.googleapis.com%2Fcss%3Ffamily%3DOpen%2BSans;fillColor=#1EA5A5;" parent="RrYDVx2lHr9lMabAJrdJ-329" vertex="1">
          <mxGeometry x="799" y="357.81999999999994" width="50" height="28.75" as="geometry" />
        </mxCell>
        <mxCell id="RrYDVx2lHr9lMabAJrdJ-242" style="edgeStyle=none;rounded=0;orthogonalLoop=1;jettySize=auto;html=1;startArrow=none;startFill=0;endArrow=none;endFill=0;exitX=0;exitY=0.5;exitDx=0;exitDy=0;entryX=1;entryY=0.5;entryDx=0;entryDy=0;" parent="RrYDVx2lHr9lMabAJrdJ-329" source="RrYDVx2lHr9lMabAJrdJ-246" target="RrYDVx2lHr9lMabAJrdJ-181" edge="1">
          <mxGeometry relative="1" as="geometry" />
        </mxCell>
        <mxCell id="RrYDVx2lHr9lMabAJrdJ-246" value="dribbles" style="ellipse;whiteSpace=wrap;html=1;fontFamily=Open Sans;fontSource=https%3A%2F%2Ffonts.googleapis.com%2Fcss%3Ffamily%3DOpen%2BSans;fillColor=#1EA5A5;" parent="RrYDVx2lHr9lMabAJrdJ-329" vertex="1">
          <mxGeometry x="800.25" y="204.17000000000007" width="50" height="28.75" as="geometry" />
        </mxCell>
        <mxCell id="RrYDVx2lHr9lMabAJrdJ-247" style="edgeStyle=none;rounded=0;orthogonalLoop=1;jettySize=auto;html=1;startArrow=none;startFill=0;endArrow=none;endFill=0;exitX=0;exitY=0.5;exitDx=0;exitDy=0;entryX=1;entryY=0.5;entryDx=0;entryDy=0;" parent="RrYDVx2lHr9lMabAJrdJ-329" source="RrYDVx2lHr9lMabAJrdJ-251" target="RrYDVx2lHr9lMabAJrdJ-181" edge="1">
          <mxGeometry relative="1" as="geometry" />
        </mxCell>
        <mxCell id="RrYDVx2lHr9lMabAJrdJ-251" value="passes" style="ellipse;whiteSpace=wrap;html=1;fontFamily=Open Sans;fontSource=https%3A%2F%2Ffonts.googleapis.com%2Fcss%3Ffamily%3DOpen%2BSans;fillColor=#1EA5A5;" parent="RrYDVx2lHr9lMabAJrdJ-329" vertex="1">
          <mxGeometry x="800.25" y="164.17000000000007" width="50" height="30" as="geometry" />
        </mxCell>
        <mxCell id="RrYDVx2lHr9lMabAJrdJ-252" style="edgeStyle=none;rounded=0;orthogonalLoop=1;jettySize=auto;html=1;startArrow=none;startFill=0;endArrow=none;endFill=0;" parent="RrYDVx2lHr9lMabAJrdJ-329" source="RrYDVx2lHr9lMabAJrdJ-255" target="RrYDVx2lHr9lMabAJrdJ-181" edge="1">
          <mxGeometry relative="1" as="geometry" />
        </mxCell>
        <mxCell id="RrYDVx2lHr9lMabAJrdJ-255" value="shots" style="ellipse;whiteSpace=wrap;html=1;fontFamily=Open Sans;fontSource=https%3A%2F%2Ffonts.googleapis.com%2Fcss%3Ffamily%3DOpen%2BSans;fillColor=#1EA5A5;" parent="RrYDVx2lHr9lMabAJrdJ-329" vertex="1">
          <mxGeometry x="799.5" y="246.47000000000003" width="50" height="30" as="geometry" />
        </mxCell>
        <mxCell id="RrYDVx2lHr9lMabAJrdJ-256" style="edgeStyle=none;rounded=0;orthogonalLoop=1;jettySize=auto;html=1;startArrow=none;startFill=0;endArrow=none;endFill=0;exitX=0;exitY=0.5;exitDx=0;exitDy=0;entryX=1;entryY=0.5;entryDx=0;entryDy=0;" parent="RrYDVx2lHr9lMabAJrdJ-329" source="RrYDVx2lHr9lMabAJrdJ-259" target="RrYDVx2lHr9lMabAJrdJ-181" edge="1">
          <mxGeometry relative="1" as="geometry">
            <mxPoint x="755" y="314.47" as="sourcePoint" />
          </mxGeometry>
        </mxCell>
        <mxCell id="RrYDVx2lHr9lMabAJrdJ-259" value="fouls" style="ellipse;whiteSpace=wrap;html=1;fontFamily=Open Sans;fontSource=https%3A%2F%2Ffonts.googleapis.com%2Fcss%3Ffamily%3DOpen%2BSans;fillColor=#1EA5A5;" parent="RrYDVx2lHr9lMabAJrdJ-329" vertex="1">
          <mxGeometry x="799.5" y="296.87" width="50" height="30" as="geometry" />
        </mxCell>
        <mxCell id="RrYDVx2lHr9lMabAJrdJ-260" style="edgeStyle=none;rounded=0;orthogonalLoop=1;jettySize=auto;html=1;startArrow=none;startFill=0;endArrow=none;endFill=0;exitX=0.5;exitY=1;exitDx=0;exitDy=0;entryX=0.5;entryY=0;entryDx=0;entryDy=0;" parent="RrYDVx2lHr9lMabAJrdJ-329" source="RrYDVx2lHr9lMabAJrdJ-268" target="RrYDVx2lHr9lMabAJrdJ-181" edge="1">
          <mxGeometry relative="1" as="geometry" />
        </mxCell>
        <mxCell id="RrYDVx2lHr9lMabAJrdJ-268" value="games" style="ellipse;whiteSpace=wrap;html=1;fontFamily=Open Sans;fontSource=https%3A%2F%2Ffonts.googleapis.com%2Fcss%3Ffamily%3DOpen%2BSans;fillColor=#1EA5A5;" parent="RrYDVx2lHr9lMabAJrdJ-329" vertex="1">
          <mxGeometry x="748.5" y="57.47000000000003" width="50" height="30" as="geometry" />
        </mxCell>
        <mxCell id="RrYDVx2lHr9lMabAJrdJ-269" style="edgeStyle=none;rounded=0;orthogonalLoop=1;jettySize=auto;html=1;startArrow=none;startFill=0;endArrow=none;endFill=0;exitX=0;exitY=0.5;exitDx=0;exitDy=0;entryX=1;entryY=0.5;entryDx=0;entryDy=0;" parent="RrYDVx2lHr9lMabAJrdJ-329" source="RrYDVx2lHr9lMabAJrdJ-273" target="RrYDVx2lHr9lMabAJrdJ-181" edge="1">
          <mxGeometry relative="1" as="geometry" />
        </mxCell>
        <mxCell id="RrYDVx2lHr9lMabAJrdJ-273" value="tackles" style="ellipse;whiteSpace=wrap;html=1;fontFamily=Open Sans;fontSource=https%3A%2F%2Ffonts.googleapis.com%2Fcss%3Ffamily%3DOpen%2BSans;fillColor=#1EA5A5;" parent="RrYDVx2lHr9lMabAJrdJ-329" vertex="1">
          <mxGeometry x="800.25" y="124.17000000000007" width="50" height="30" as="geometry" />
        </mxCell>
        <mxCell id="RrYDVx2lHr9lMabAJrdJ-274" style="edgeStyle=none;rounded=0;orthogonalLoop=1;jettySize=auto;html=1;endArrow=none;endFill=0;entryX=0.5;entryY=0;entryDx=0;entryDy=0;" parent="RrYDVx2lHr9lMabAJrdJ-329" source="RrYDVx2lHr9lMabAJrdJ-275" target="RrYDVx2lHr9lMabAJrdJ-236" edge="1">
          <mxGeometry relative="1" as="geometry" />
        </mxCell>
        <mxCell id="RrYDVx2lHr9lMabAJrdJ-275" value="id" style="ellipse;whiteSpace=wrap;html=1;fontFamily=Open Sans;fontSource=https%3A%2F%2Ffonts.googleapis.com%2Fcss%3Ffamily%3DOpen%2BSans;fillColor=#1EA5A5;" parent="RrYDVx2lHr9lMabAJrdJ-329" vertex="1">
          <mxGeometry x="330" y="127.47000000000003" width="50" height="30" as="geometry" />
        </mxCell>
        <mxCell id="RrYDVx2lHr9lMabAJrdJ-276" style="edgeStyle=none;rounded=0;orthogonalLoop=1;jettySize=auto;html=1;endArrow=none;endFill=0;" parent="RrYDVx2lHr9lMabAJrdJ-329" source="RrYDVx2lHr9lMabAJrdJ-277" target="RrYDVx2lHr9lMabAJrdJ-236" edge="1">
          <mxGeometry relative="1" as="geometry" />
        </mxCell>
        <mxCell id="RrYDVx2lHr9lMabAJrdJ-277" value="name" style="ellipse;whiteSpace=wrap;html=1;fontFamily=Open Sans;fontSource=https%3A%2F%2Ffonts.googleapis.com%2Fcss%3Ffamily%3DOpen%2BSans;fillColor=#1EA5A5;" parent="RrYDVx2lHr9lMabAJrdJ-329" vertex="1">
          <mxGeometry x="390" y="127.47000000000003" width="50" height="30" as="geometry" />
        </mxCell>
        <mxCell id="RrYDVx2lHr9lMabAJrdJ-278" style="edgeStyle=none;rounded=0;orthogonalLoop=1;jettySize=auto;html=1;entryX=0.5;entryY=0;entryDx=0;entryDy=0;endArrow=none;endFill=0;" parent="RrYDVx2lHr9lMabAJrdJ-329" source="RrYDVx2lHr9lMabAJrdJ-279" target="RrYDVx2lHr9lMabAJrdJ-236" edge="1">
          <mxGeometry relative="1" as="geometry">
            <mxPoint x="422.5" y="167.47000000000003" as="targetPoint" />
          </mxGeometry>
        </mxCell>
        <mxCell id="RrYDVx2lHr9lMabAJrdJ-279" value="logo" style="ellipse;whiteSpace=wrap;html=1;fontFamily=Open Sans;fontSource=https%3A%2F%2Ffonts.googleapis.com%2Fcss%3Ffamily%3DOpen%2BSans;fillColor=#1EA5A5;" parent="RrYDVx2lHr9lMabAJrdJ-329" vertex="1">
          <mxGeometry x="450" y="127.47000000000003" width="50" height="30" as="geometry" />
        </mxCell>
        <mxCell id="RrYDVx2lHr9lMabAJrdJ-280" value="id" style="ellipse;whiteSpace=wrap;html=1;fontFamily=Open Sans;fontSource=https%3A%2F%2Ffonts.googleapis.com%2Fcss%3Ffamily%3DOpen%2BSans;fillColor=#1EA5A5;" parent="RrYDVx2lHr9lMabAJrdJ-329" vertex="1">
          <mxGeometry x="442.5" y="80.62000000000012" width="50" height="30" as="geometry" />
        </mxCell>
        <mxCell id="RrYDVx2lHr9lMabAJrdJ-229" style="edgeStyle=none;rounded=0;orthogonalLoop=1;jettySize=auto;html=1;entryX=0.5;entryY=1;entryDx=0;entryDy=0;endArrow=none;endFill=0;exitX=0.5;exitY=0;exitDx=0;exitDy=0;" parent="RrYDVx2lHr9lMabAJrdJ-329" source="RrYDVx2lHr9lMabAJrdJ-234" target="RrYDVx2lHr9lMabAJrdJ-280" edge="1">
          <mxGeometry relative="1" as="geometry" />
        </mxCell>
        <mxCell id="RrYDVx2lHr9lMabAJrdJ-281" value="name" style="ellipse;whiteSpace=wrap;html=1;fontFamily=Open Sans;fontSource=https%3A%2F%2Ffonts.googleapis.com%2Fcss%3Ffamily%3DOpen%2BSans;fillColor=#1EA5A5;" parent="RrYDVx2lHr9lMabAJrdJ-329" vertex="1">
          <mxGeometry x="503.5" y="80.62000000000012" width="50" height="30" as="geometry" />
        </mxCell>
        <mxCell id="RrYDVx2lHr9lMabAJrdJ-230" style="edgeStyle=none;rounded=0;orthogonalLoop=1;jettySize=auto;html=1;entryX=0.5;entryY=1;entryDx=0;entryDy=0;endArrow=none;endFill=0;exitX=0.5;exitY=0;exitDx=0;exitDy=0;" parent="RrYDVx2lHr9lMabAJrdJ-329" source="RrYDVx2lHr9lMabAJrdJ-234" target="RrYDVx2lHr9lMabAJrdJ-281" edge="1">
          <mxGeometry relative="1" as="geometry">
            <mxPoint x="565" y="134.47000000000003" as="sourcePoint" />
          </mxGeometry>
        </mxCell>
        <mxCell id="RrYDVx2lHr9lMabAJrdJ-282" value="country" style="ellipse;whiteSpace=wrap;html=1;fontFamily=Open Sans;fontSource=https%3A%2F%2Ffonts.googleapis.com%2Fcss%3Ffamily%3DOpen%2BSans;fillColor=#1EA5A5;" parent="RrYDVx2lHr9lMabAJrdJ-329" vertex="1">
          <mxGeometry x="565.5" y="80.62000000000012" width="50" height="30" as="geometry" />
        </mxCell>
        <mxCell id="RrYDVx2lHr9lMabAJrdJ-231" style="edgeStyle=none;rounded=0;orthogonalLoop=1;jettySize=auto;html=1;endArrow=none;endFill=0;entryX=0.5;entryY=1;entryDx=0;entryDy=0;exitX=0.5;exitY=0;exitDx=0;exitDy=0;" parent="RrYDVx2lHr9lMabAJrdJ-329" source="RrYDVx2lHr9lMabAJrdJ-234" target="RrYDVx2lHr9lMabAJrdJ-282" edge="1">
          <mxGeometry relative="1" as="geometry">
            <mxPoint x="595" y="124.47000000000003" as="targetPoint" />
          </mxGeometry>
        </mxCell>
        <mxCell id="RrYDVx2lHr9lMabAJrdJ-283" value="flag" style="ellipse;whiteSpace=wrap;html=1;fontFamily=Open Sans;fontSource=https%3A%2F%2Ffonts.googleapis.com%2Fcss%3Ffamily%3DOpen%2BSans;fillColor=#1EA5A5;" parent="RrYDVx2lHr9lMabAJrdJ-329" vertex="1">
          <mxGeometry x="626.5" y="80.62000000000012" width="50" height="30" as="geometry" />
        </mxCell>
        <mxCell id="RrYDVx2lHr9lMabAJrdJ-232" style="edgeStyle=none;rounded=0;orthogonalLoop=1;jettySize=auto;html=1;entryX=0.5;entryY=1;entryDx=0;entryDy=0;endArrow=none;endFill=0;exitX=0.5;exitY=0;exitDx=0;exitDy=0;" parent="RrYDVx2lHr9lMabAJrdJ-329" source="RrYDVx2lHr9lMabAJrdJ-234" target="RrYDVx2lHr9lMabAJrdJ-283" edge="1">
          <mxGeometry relative="1" as="geometry" />
        </mxCell>
        <mxCell id="RrYDVx2lHr9lMabAJrdJ-284" value="season" style="ellipse;whiteSpace=wrap;html=1;fontFamily=Open Sans;fontSource=https%3A%2F%2Ffonts.googleapis.com%2Fcss%3Ffamily%3DOpen%2BSans;fillColor=#1EA5A5;" parent="RrYDVx2lHr9lMabAJrdJ-329" vertex="1">
          <mxGeometry x="687.5" y="80.62000000000012" width="50" height="30" as="geometry" />
        </mxCell>
        <mxCell id="RrYDVx2lHr9lMabAJrdJ-233" style="edgeStyle=none;rounded=0;orthogonalLoop=1;jettySize=auto;html=1;entryX=0.437;entryY=1.024;entryDx=0;entryDy=0;entryPerimeter=0;endArrow=none;endFill=0;exitX=0.5;exitY=0;exitDx=0;exitDy=0;" parent="RrYDVx2lHr9lMabAJrdJ-329" source="RrYDVx2lHr9lMabAJrdJ-234" target="RrYDVx2lHr9lMabAJrdJ-284" edge="1">
          <mxGeometry relative="1" as="geometry" />
        </mxCell>
        <mxCell id="RrYDVx2lHr9lMabAJrdJ-285" value="appearences" style="ellipse;whiteSpace=wrap;html=1;fontFamily=Open Sans;fontSource=https%3A%2F%2Ffonts.googleapis.com%2Fcss%3Ffamily%3DOpen%2BSans;fillColor=#1EA5A5;" parent="RrYDVx2lHr9lMabAJrdJ-329" vertex="1">
          <mxGeometry x="545.5" width="77.5" height="30" as="geometry" />
        </mxCell>
        <mxCell id="RrYDVx2lHr9lMabAJrdJ-261" style="edgeStyle=none;rounded=0;orthogonalLoop=1;jettySize=auto;html=1;entryX=0.5;entryY=1;entryDx=0;entryDy=0;endArrow=none;endFill=0;exitX=0.5;exitY=0;exitDx=0;exitDy=0;" parent="RrYDVx2lHr9lMabAJrdJ-329" source="RrYDVx2lHr9lMabAJrdJ-268" target="RrYDVx2lHr9lMabAJrdJ-285" edge="1">
          <mxGeometry relative="1" as="geometry" />
        </mxCell>
        <mxCell id="RrYDVx2lHr9lMabAJrdJ-286" value="lineups" style="ellipse;whiteSpace=wrap;html=1;fontFamily=Open Sans;fontSource=https%3A%2F%2Ffonts.googleapis.com%2Fcss%3Ffamily%3DOpen%2BSans;fillColor=#1EA5A5;" parent="RrYDVx2lHr9lMabAJrdJ-329" vertex="1">
          <mxGeometry x="628.5" y="1.1368683772161603e-13" width="50" height="30" as="geometry" />
        </mxCell>
        <mxCell id="RrYDVx2lHr9lMabAJrdJ-262" style="edgeStyle=none;rounded=0;orthogonalLoop=1;jettySize=auto;html=1;entryX=0.5;entryY=1;entryDx=0;entryDy=0;endArrow=none;endFill=0;exitX=0.5;exitY=0;exitDx=0;exitDy=0;" parent="RrYDVx2lHr9lMabAJrdJ-329" source="RrYDVx2lHr9lMabAJrdJ-268" target="RrYDVx2lHr9lMabAJrdJ-286" edge="1">
          <mxGeometry relative="1" as="geometry">
            <mxPoint x="785" y="34.47000000000003" as="sourcePoint" />
          </mxGeometry>
        </mxCell>
        <mxCell id="RrYDVx2lHr9lMabAJrdJ-287" value="minutes" style="ellipse;whiteSpace=wrap;html=1;fontFamily=Open Sans;fontSource=https%3A%2F%2Ffonts.googleapis.com%2Fcss%3Ffamily%3DOpen%2BSans;fillColor=#1EA5A5;" parent="RrYDVx2lHr9lMabAJrdJ-329" vertex="1">
          <mxGeometry x="685.5" y="1.1368683772161603e-13" width="50" height="30" as="geometry" />
        </mxCell>
        <mxCell id="RrYDVx2lHr9lMabAJrdJ-263" style="edgeStyle=none;rounded=0;orthogonalLoop=1;jettySize=auto;html=1;entryX=0.5;entryY=1;entryDx=0;entryDy=0;endArrow=none;endFill=0;exitX=0.5;exitY=0;exitDx=0;exitDy=0;" parent="RrYDVx2lHr9lMabAJrdJ-329" source="RrYDVx2lHr9lMabAJrdJ-268" target="RrYDVx2lHr9lMabAJrdJ-287" edge="1">
          <mxGeometry relative="1" as="geometry" />
        </mxCell>
        <mxCell id="RrYDVx2lHr9lMabAJrdJ-288" value="number" style="ellipse;whiteSpace=wrap;html=1;fontFamily=Open Sans;fontSource=https%3A%2F%2Ffonts.googleapis.com%2Fcss%3Ffamily%3DOpen%2BSans;fillColor=#1EA5A5;" parent="RrYDVx2lHr9lMabAJrdJ-329" vertex="1">
          <mxGeometry x="748.5" y="1.1368683772161603e-13" width="50" height="30" as="geometry" />
        </mxCell>
        <mxCell id="RrYDVx2lHr9lMabAJrdJ-264" style="edgeStyle=none;rounded=0;orthogonalLoop=1;jettySize=auto;html=1;entryX=0.5;entryY=1;entryDx=0;entryDy=0;endArrow=none;endFill=0;exitX=0.5;exitY=0;exitDx=0;exitDy=0;" parent="RrYDVx2lHr9lMabAJrdJ-329" source="RrYDVx2lHr9lMabAJrdJ-268" target="RrYDVx2lHr9lMabAJrdJ-288" edge="1">
          <mxGeometry relative="1" as="geometry" />
        </mxCell>
        <mxCell id="RrYDVx2lHr9lMabAJrdJ-289" value="position" style="ellipse;whiteSpace=wrap;html=1;fontFamily=Open Sans;fontSource=https%3A%2F%2Ffonts.googleapis.com%2Fcss%3Ffamily%3DOpen%2BSans;fillColor=#1EA5A5;" parent="RrYDVx2lHr9lMabAJrdJ-329" vertex="1">
          <mxGeometry x="811.5" y="1.1368683772161603e-13" width="50" height="30" as="geometry" />
        </mxCell>
        <mxCell id="RrYDVx2lHr9lMabAJrdJ-265" style="edgeStyle=none;rounded=0;orthogonalLoop=1;jettySize=auto;html=1;entryX=0.437;entryY=0.972;entryDx=0;entryDy=0;entryPerimeter=0;endArrow=none;endFill=0;exitX=0.5;exitY=0;exitDx=0;exitDy=0;" parent="RrYDVx2lHr9lMabAJrdJ-329" source="RrYDVx2lHr9lMabAJrdJ-268" target="RrYDVx2lHr9lMabAJrdJ-289" edge="1">
          <mxGeometry relative="1" as="geometry" />
        </mxCell>
        <mxCell id="RrYDVx2lHr9lMabAJrdJ-290" value="rating" style="ellipse;whiteSpace=wrap;html=1;fontFamily=Open Sans;fontSource=https%3A%2F%2Ffonts.googleapis.com%2Fcss%3Ffamily%3DOpen%2BSans;fillColor=#1EA5A5;" parent="RrYDVx2lHr9lMabAJrdJ-329" vertex="1">
          <mxGeometry x="938" y="1.1368683772161603e-13" width="50" height="30" as="geometry" />
        </mxCell>
        <mxCell id="RrYDVx2lHr9lMabAJrdJ-266" style="edgeStyle=none;rounded=0;orthogonalLoop=1;jettySize=auto;html=1;entryX=0.5;entryY=1;entryDx=0;entryDy=0;endArrow=none;endFill=0;exitX=0.5;exitY=0;exitDx=0;exitDy=0;" parent="RrYDVx2lHr9lMabAJrdJ-329" source="RrYDVx2lHr9lMabAJrdJ-268" target="RrYDVx2lHr9lMabAJrdJ-290" edge="1">
          <mxGeometry relative="1" as="geometry" />
        </mxCell>
        <mxCell id="RrYDVx2lHr9lMabAJrdJ-291" value="captain" style="ellipse;whiteSpace=wrap;html=1;fontFamily=Open Sans;fontSource=https%3A%2F%2Ffonts.googleapis.com%2Fcss%3Ffamily%3DOpen%2BSans;fillColor=#1EA5A5;" parent="RrYDVx2lHr9lMabAJrdJ-329" vertex="1">
          <mxGeometry x="874.5" y="1.1368683772161603e-13" width="50" height="30" as="geometry" />
        </mxCell>
        <mxCell id="RrYDVx2lHr9lMabAJrdJ-267" style="edgeStyle=none;rounded=0;orthogonalLoop=1;jettySize=auto;html=1;entryX=0.5;entryY=1;entryDx=0;entryDy=0;endArrow=none;endFill=0;exitX=0.5;exitY=0;exitDx=0;exitDy=0;" parent="RrYDVx2lHr9lMabAJrdJ-329" source="RrYDVx2lHr9lMabAJrdJ-268" target="RrYDVx2lHr9lMabAJrdJ-291" edge="1">
          <mxGeometry relative="1" as="geometry" />
        </mxCell>
        <mxCell id="RrYDVx2lHr9lMabAJrdJ-292" value="total" style="ellipse;whiteSpace=wrap;html=1;fontFamily=Open Sans;fontSource=https%3A%2F%2Ffonts.googleapis.com%2Fcss%3Ffamily%3DOpen%2BSans;fillColor=#1EA5A5;" parent="RrYDVx2lHr9lMabAJrdJ-329" vertex="1">
          <mxGeometry x="871" y="47.17000000000007" width="50" height="30" as="geometry" />
        </mxCell>
        <mxCell id="RrYDVx2lHr9lMabAJrdJ-207" style="edgeStyle=none;rounded=0;orthogonalLoop=1;jettySize=auto;html=1;entryX=0.5;entryY=1;entryDx=0;entryDy=0;endArrow=none;endFill=0;exitX=1;exitY=0.5;exitDx=0;exitDy=0;" parent="RrYDVx2lHr9lMabAJrdJ-329" source="RrYDVx2lHr9lMabAJrdJ-211" target="RrYDVx2lHr9lMabAJrdJ-292" edge="1">
          <mxGeometry relative="1" as="geometry" />
        </mxCell>
        <mxCell id="RrYDVx2lHr9lMabAJrdJ-293" value="conceded" style="ellipse;whiteSpace=wrap;html=1;fontFamily=Open Sans;fontSource=https%3A%2F%2Ffonts.googleapis.com%2Fcss%3Ffamily%3DOpen%2BSans;fillColor=#1EA5A5;" parent="RrYDVx2lHr9lMabAJrdJ-329" vertex="1">
          <mxGeometry x="929.75" y="47.17000000000007" width="64" height="30" as="geometry" />
        </mxCell>
        <mxCell id="RrYDVx2lHr9lMabAJrdJ-208" style="edgeStyle=none;rounded=0;orthogonalLoop=1;jettySize=auto;html=1;entryX=0.5;entryY=1;entryDx=0;entryDy=0;endArrow=none;endFill=0;exitX=1;exitY=0.5;exitDx=0;exitDy=0;" parent="RrYDVx2lHr9lMabAJrdJ-329" source="RrYDVx2lHr9lMabAJrdJ-211" target="RrYDVx2lHr9lMabAJrdJ-293" edge="1">
          <mxGeometry relative="1" as="geometry" />
        </mxCell>
        <mxCell id="RrYDVx2lHr9lMabAJrdJ-294" value="assists" style="ellipse;whiteSpace=wrap;html=1;fontFamily=Open Sans;fontSource=https%3A%2F%2Ffonts.googleapis.com%2Fcss%3Ffamily%3DOpen%2BSans;fillColor=#1EA5A5;" parent="RrYDVx2lHr9lMabAJrdJ-329" vertex="1">
          <mxGeometry x="999.75" y="47.32000000000005" width="55" height="30" as="geometry" />
        </mxCell>
        <mxCell id="RrYDVx2lHr9lMabAJrdJ-209" style="edgeStyle=none;rounded=0;orthogonalLoop=1;jettySize=auto;html=1;entryX=0.5;entryY=1;entryDx=0;entryDy=0;endArrow=none;endFill=0;exitX=1;exitY=0.5;exitDx=0;exitDy=0;" parent="RrYDVx2lHr9lMabAJrdJ-329" source="RrYDVx2lHr9lMabAJrdJ-211" target="RrYDVx2lHr9lMabAJrdJ-294" edge="1">
          <mxGeometry relative="1" as="geometry" />
        </mxCell>
        <mxCell id="RrYDVx2lHr9lMabAJrdJ-295" value="saves" style="ellipse;whiteSpace=wrap;html=1;fontFamily=Open Sans;fontSource=https%3A%2F%2Ffonts.googleapis.com%2Fcss%3Ffamily%3DOpen%2BSans;fillColor=#1EA5A5;" parent="RrYDVx2lHr9lMabAJrdJ-329" vertex="1">
          <mxGeometry x="1065.25" y="47.32000000000005" width="55" height="30" as="geometry" />
        </mxCell>
        <mxCell id="RrYDVx2lHr9lMabAJrdJ-210" style="edgeStyle=none;rounded=0;orthogonalLoop=1;jettySize=auto;html=1;entryX=0.5;entryY=1;entryDx=0;entryDy=0;endArrow=none;endFill=0;exitX=1;exitY=0.5;exitDx=0;exitDy=0;" parent="RrYDVx2lHr9lMabAJrdJ-329" source="RrYDVx2lHr9lMabAJrdJ-211" target="RrYDVx2lHr9lMabAJrdJ-295" edge="1">
          <mxGeometry relative="1" as="geometry" />
        </mxCell>
        <mxCell id="RrYDVx2lHr9lMabAJrdJ-296" value="in" style="ellipse;whiteSpace=wrap;html=1;fontFamily=Open Sans;fontSource=https%3A%2F%2Ffonts.googleapis.com%2Fcss%3Ffamily%3DOpen%2BSans;fillColor=#1EA5A5;" parent="RrYDVx2lHr9lMabAJrdJ-329" vertex="1">
          <mxGeometry x="736.75" y="514.47" width="50" height="30" as="geometry" />
        </mxCell>
        <mxCell id="RrYDVx2lHr9lMabAJrdJ-217" style="edgeStyle=none;rounded=0;orthogonalLoop=1;jettySize=auto;html=1;entryX=0.5;entryY=0;entryDx=0;entryDy=0;endArrow=none;endFill=0;exitX=0.5;exitY=1;exitDx=0;exitDy=0;" parent="RrYDVx2lHr9lMabAJrdJ-329" source="RrYDVx2lHr9lMabAJrdJ-220" target="RrYDVx2lHr9lMabAJrdJ-296" edge="1">
          <mxGeometry relative="1" as="geometry" />
        </mxCell>
        <mxCell id="RrYDVx2lHr9lMabAJrdJ-297" value="out" style="ellipse;whiteSpace=wrap;html=1;fontFamily=Open Sans;fontSource=https%3A%2F%2Ffonts.googleapis.com%2Fcss%3Ffamily%3DOpen%2BSans;fillColor=#1EA5A5;" parent="RrYDVx2lHr9lMabAJrdJ-329" vertex="1">
          <mxGeometry x="797.25" y="514.47" width="50" height="30" as="geometry" />
        </mxCell>
        <mxCell id="RrYDVx2lHr9lMabAJrdJ-218" style="edgeStyle=none;rounded=0;orthogonalLoop=1;jettySize=auto;html=1;entryX=0.5;entryY=0;entryDx=0;entryDy=0;endArrow=none;endFill=0;" parent="RrYDVx2lHr9lMabAJrdJ-329" source="RrYDVx2lHr9lMabAJrdJ-220" target="RrYDVx2lHr9lMabAJrdJ-297" edge="1">
          <mxGeometry relative="1" as="geometry" />
        </mxCell>
        <mxCell id="RrYDVx2lHr9lMabAJrdJ-298" value="bench" style="ellipse;whiteSpace=wrap;html=1;fontFamily=Open Sans;fontSource=https%3A%2F%2Ffonts.googleapis.com%2Fcss%3Ffamily%3DOpen%2BSans;fillColor=#1EA5A5;" parent="RrYDVx2lHr9lMabAJrdJ-329" vertex="1">
          <mxGeometry x="858.25" y="514.47" width="50" height="30" as="geometry" />
        </mxCell>
        <mxCell id="RrYDVx2lHr9lMabAJrdJ-299" value="total" style="ellipse;whiteSpace=wrap;html=1;fontFamily=Open Sans;fontSource=https%3A%2F%2Ffonts.googleapis.com%2Fcss%3Ffamily%3DOpen%2BSans;fillColor=#1EA5A5;" parent="RrYDVx2lHr9lMabAJrdJ-329" vertex="1">
          <mxGeometry x="937.25" y="224.47000000000003" width="50" height="30" as="geometry" />
        </mxCell>
        <mxCell id="RrYDVx2lHr9lMabAJrdJ-253" style="edgeStyle=none;rounded=0;orthogonalLoop=1;jettySize=auto;html=1;entryX=0;entryY=0.5;entryDx=0;entryDy=0;endArrow=none;endFill=0;exitX=1;exitY=0.5;exitDx=0;exitDy=0;" parent="RrYDVx2lHr9lMabAJrdJ-329" source="RrYDVx2lHr9lMabAJrdJ-255" target="RrYDVx2lHr9lMabAJrdJ-299" edge="1">
          <mxGeometry relative="1" as="geometry" />
        </mxCell>
        <mxCell id="RrYDVx2lHr9lMabAJrdJ-300" value="on" style="ellipse;whiteSpace=wrap;html=1;fontFamily=Open Sans;fontSource=https%3A%2F%2Ffonts.googleapis.com%2Fcss%3Ffamily%3DOpen%2BSans;fillColor=#1EA5A5;" parent="RrYDVx2lHr9lMabAJrdJ-329" vertex="1">
          <mxGeometry x="937.25" y="261.87" width="50" height="30" as="geometry" />
        </mxCell>
        <mxCell id="RrYDVx2lHr9lMabAJrdJ-254" style="edgeStyle=none;rounded=0;orthogonalLoop=1;jettySize=auto;html=1;entryX=0;entryY=0.5;entryDx=0;entryDy=0;endArrow=none;endFill=0;exitX=1;exitY=0.5;exitDx=0;exitDy=0;" parent="RrYDVx2lHr9lMabAJrdJ-329" source="RrYDVx2lHr9lMabAJrdJ-255" target="RrYDVx2lHr9lMabAJrdJ-300" edge="1">
          <mxGeometry relative="1" as="geometry" />
        </mxCell>
        <mxCell id="RrYDVx2lHr9lMabAJrdJ-301" value="total" style="ellipse;whiteSpace=wrap;html=1;fontFamily=Open Sans;fontSource=https%3A%2F%2Ffonts.googleapis.com%2Fcss%3Ffamily%3DOpen%2BSans;fillColor=#1EA5A5;" parent="RrYDVx2lHr9lMabAJrdJ-329" vertex="1">
          <mxGeometry x="871" y="101.32000000000005" width="50" height="30" as="geometry" />
        </mxCell>
        <mxCell id="RrYDVx2lHr9lMabAJrdJ-270" style="edgeStyle=none;rounded=0;orthogonalLoop=1;jettySize=auto;html=1;entryX=0.5;entryY=1;entryDx=0;entryDy=0;endArrow=none;endFill=0;exitX=1;exitY=0.5;exitDx=0;exitDy=0;" parent="RrYDVx2lHr9lMabAJrdJ-329" source="RrYDVx2lHr9lMabAJrdJ-273" target="RrYDVx2lHr9lMabAJrdJ-301" edge="1">
          <mxGeometry relative="1" as="geometry" />
        </mxCell>
        <mxCell id="RrYDVx2lHr9lMabAJrdJ-302" value="blocks" style="ellipse;whiteSpace=wrap;html=1;fontFamily=Open Sans;fontSource=https%3A%2F%2Ffonts.googleapis.com%2Fcss%3Ffamily%3DOpen%2BSans;fillColor=#1EA5A5;" parent="RrYDVx2lHr9lMabAJrdJ-329" vertex="1">
          <mxGeometry x="937" y="101.32000000000005" width="55" height="30" as="geometry" />
        </mxCell>
        <mxCell id="RrYDVx2lHr9lMabAJrdJ-271" style="edgeStyle=none;rounded=0;orthogonalLoop=1;jettySize=auto;html=1;entryX=0.5;entryY=1;entryDx=0;entryDy=0;endArrow=none;endFill=0;exitX=1;exitY=0.5;exitDx=0;exitDy=0;" parent="RrYDVx2lHr9lMabAJrdJ-329" source="RrYDVx2lHr9lMabAJrdJ-273" target="RrYDVx2lHr9lMabAJrdJ-302" edge="1">
          <mxGeometry relative="1" as="geometry" />
        </mxCell>
        <mxCell id="RrYDVx2lHr9lMabAJrdJ-303" value="interceptions" style="ellipse;whiteSpace=wrap;html=1;fontFamily=Open Sans;fontSource=https%3A%2F%2Ffonts.googleapis.com%2Fcss%3Ffamily%3DOpen%2BSans;fillColor=#1EA5A5;" parent="RrYDVx2lHr9lMabAJrdJ-329" vertex="1">
          <mxGeometry x="1004" y="101.32000000000005" width="83" height="30" as="geometry" />
        </mxCell>
        <mxCell id="RrYDVx2lHr9lMabAJrdJ-272" style="edgeStyle=none;rounded=0;orthogonalLoop=1;jettySize=auto;html=1;entryX=0.5;entryY=1;entryDx=0;entryDy=0;endArrow=none;endFill=0;exitX=1;exitY=0.5;exitDx=0;exitDy=0;" parent="RrYDVx2lHr9lMabAJrdJ-329" source="RrYDVx2lHr9lMabAJrdJ-273" target="RrYDVx2lHr9lMabAJrdJ-303" edge="1">
          <mxGeometry relative="1" as="geometry" />
        </mxCell>
        <mxCell id="RrYDVx2lHr9lMabAJrdJ-304" value="total" style="ellipse;whiteSpace=wrap;html=1;fontFamily=Open Sans;fontSource=https%3A%2F%2Ffonts.googleapis.com%2Fcss%3Ffamily%3DOpen%2BSans;fillColor=#1EA5A5;" parent="RrYDVx2lHr9lMabAJrdJ-329" vertex="1">
          <mxGeometry x="867.5" y="430.6200000000001" width="50" height="30" as="geometry" />
        </mxCell>
        <mxCell id="RrYDVx2lHr9lMabAJrdJ-214" style="edgeStyle=none;rounded=0;orthogonalLoop=1;jettySize=auto;html=1;entryX=0;entryY=0.5;entryDx=0;entryDy=0;endArrow=none;endFill=0;exitX=1;exitY=0.5;exitDx=0;exitDy=0;" parent="RrYDVx2lHr9lMabAJrdJ-329" source="RrYDVx2lHr9lMabAJrdJ-215" target="RrYDVx2lHr9lMabAJrdJ-304" edge="1">
          <mxGeometry relative="1" as="geometry" />
        </mxCell>
        <mxCell id="RrYDVx2lHr9lMabAJrdJ-305" value="won" style="ellipse;whiteSpace=wrap;html=1;fontFamily=Open Sans;fontSource=https%3A%2F%2Ffonts.googleapis.com%2Fcss%3Ffamily%3DOpen%2BSans;fillColor=#1EA5A5;" parent="RrYDVx2lHr9lMabAJrdJ-329" vertex="1">
          <mxGeometry x="867.5" y="395.6200000000001" width="50" height="30" as="geometry" />
        </mxCell>
        <mxCell id="RrYDVx2lHr9lMabAJrdJ-213" style="edgeStyle=none;rounded=0;orthogonalLoop=1;jettySize=auto;html=1;entryX=0;entryY=0.5;entryDx=0;entryDy=0;endArrow=none;endFill=0;exitX=1;exitY=0.5;exitDx=0;exitDy=0;" parent="RrYDVx2lHr9lMabAJrdJ-329" source="RrYDVx2lHr9lMabAJrdJ-215" target="RrYDVx2lHr9lMabAJrdJ-305" edge="1">
          <mxGeometry relative="1" as="geometry" />
        </mxCell>
        <mxCell id="RrYDVx2lHr9lMabAJrdJ-306" value="attempts" style="ellipse;whiteSpace=wrap;html=1;fontFamily=Open Sans;fontSource=https%3A%2F%2Ffonts.googleapis.com%2Fcss%3Ffamily%3DOpen%2BSans;fillColor=#1EA5A5;" parent="RrYDVx2lHr9lMabAJrdJ-329" vertex="1">
          <mxGeometry x="869.25" y="180.32000000000005" width="54.5" height="30" as="geometry" />
        </mxCell>
        <mxCell id="RrYDVx2lHr9lMabAJrdJ-243" style="edgeStyle=none;rounded=0;orthogonalLoop=1;jettySize=auto;html=1;entryX=0.5;entryY=1;entryDx=0;entryDy=0;endArrow=none;endFill=0;exitX=1;exitY=0.5;exitDx=0;exitDy=0;" parent="RrYDVx2lHr9lMabAJrdJ-329" source="RrYDVx2lHr9lMabAJrdJ-246" target="RrYDVx2lHr9lMabAJrdJ-306" edge="1">
          <mxGeometry relative="1" as="geometry" />
        </mxCell>
        <mxCell id="RrYDVx2lHr9lMabAJrdJ-307" value="success" style="ellipse;whiteSpace=wrap;html=1;fontFamily=Open Sans;fontSource=https%3A%2F%2Ffonts.googleapis.com%2Fcss%3Ffamily%3DOpen%2BSans;fillColor=#1EA5A5;" parent="RrYDVx2lHr9lMabAJrdJ-329" vertex="1">
          <mxGeometry x="937.25" y="180.32000000000005" width="50" height="30" as="geometry" />
        </mxCell>
        <mxCell id="RrYDVx2lHr9lMabAJrdJ-244" style="edgeStyle=none;rounded=0;orthogonalLoop=1;jettySize=auto;html=1;entryX=0.5;entryY=1;entryDx=0;entryDy=0;endArrow=none;endFill=0;exitX=1;exitY=0.5;exitDx=0;exitDy=0;" parent="RrYDVx2lHr9lMabAJrdJ-329" source="RrYDVx2lHr9lMabAJrdJ-246" target="RrYDVx2lHr9lMabAJrdJ-307" edge="1">
          <mxGeometry relative="1" as="geometry" />
        </mxCell>
        <mxCell id="RrYDVx2lHr9lMabAJrdJ-308" value="past" style="ellipse;whiteSpace=wrap;html=1;fontFamily=Open Sans;fontSource=https%3A%2F%2Ffonts.googleapis.com%2Fcss%3Ffamily%3DOpen%2BSans;fillColor=#1EA5A5;" parent="RrYDVx2lHr9lMabAJrdJ-329" vertex="1">
          <mxGeometry x="1002.75" y="180.32000000000005" width="50" height="30" as="geometry" />
        </mxCell>
        <mxCell id="RrYDVx2lHr9lMabAJrdJ-245" style="edgeStyle=none;rounded=0;orthogonalLoop=1;jettySize=auto;html=1;entryX=0.5;entryY=1;entryDx=0;entryDy=0;endArrow=none;endFill=0;exitX=1;exitY=0.5;exitDx=0;exitDy=0;" parent="RrYDVx2lHr9lMabAJrdJ-329" source="RrYDVx2lHr9lMabAJrdJ-246" target="RrYDVx2lHr9lMabAJrdJ-308" edge="1">
          <mxGeometry relative="1" as="geometry" />
        </mxCell>
        <mxCell id="RrYDVx2lHr9lMabAJrdJ-309" value="total" style="ellipse;whiteSpace=wrap;html=1;fontFamily=Open Sans;fontSource=https%3A%2F%2Ffonts.googleapis.com%2Fcss%3Ffamily%3DOpen%2BSans;fillColor=#1EA5A5;" parent="RrYDVx2lHr9lMabAJrdJ-329" vertex="1">
          <mxGeometry x="939.5" y="141.17000000000007" width="50" height="30" as="geometry" />
        </mxCell>
        <mxCell id="RrYDVx2lHr9lMabAJrdJ-249" style="edgeStyle=none;rounded=0;orthogonalLoop=1;jettySize=auto;html=1;entryX=0.5;entryY=1;entryDx=0;entryDy=0;endArrow=none;endFill=0;exitX=1;exitY=0.5;exitDx=0;exitDy=0;" parent="RrYDVx2lHr9lMabAJrdJ-329" source="RrYDVx2lHr9lMabAJrdJ-251" target="RrYDVx2lHr9lMabAJrdJ-309" edge="1">
          <mxGeometry relative="1" as="geometry" />
        </mxCell>
        <mxCell id="RrYDVx2lHr9lMabAJrdJ-310" value="key" style="ellipse;whiteSpace=wrap;html=1;fontFamily=Open Sans;fontSource=https%3A%2F%2Ffonts.googleapis.com%2Fcss%3Ffamily%3DOpen%2BSans;fillColor=#1EA5A5;" parent="RrYDVx2lHr9lMabAJrdJ-329" vertex="1">
          <mxGeometry x="867.75" y="141.17000000000007" width="50" height="30" as="geometry" />
        </mxCell>
        <mxCell id="RrYDVx2lHr9lMabAJrdJ-248" style="edgeStyle=none;rounded=0;orthogonalLoop=1;jettySize=auto;html=1;entryX=0.5;entryY=1;entryDx=0;entryDy=0;endArrow=none;endFill=0;exitX=1;exitY=0.5;exitDx=0;exitDy=0;" parent="RrYDVx2lHr9lMabAJrdJ-329" source="RrYDVx2lHr9lMabAJrdJ-251" target="RrYDVx2lHr9lMabAJrdJ-310" edge="1">
          <mxGeometry relative="1" as="geometry" />
        </mxCell>
        <mxCell id="RrYDVx2lHr9lMabAJrdJ-311" value="accuracy" style="ellipse;whiteSpace=wrap;html=1;fontFamily=Open Sans;fontSource=https%3A%2F%2Ffonts.googleapis.com%2Fcss%3Ffamily%3DOpen%2BSans;fillColor=#1EA5A5;" parent="RrYDVx2lHr9lMabAJrdJ-329" vertex="1">
          <mxGeometry x="1017" y="141.17000000000007" width="57" height="30" as="geometry" />
        </mxCell>
        <mxCell id="RrYDVx2lHr9lMabAJrdJ-250" style="edgeStyle=none;rounded=0;orthogonalLoop=1;jettySize=auto;html=1;entryX=0.5;entryY=1;entryDx=0;entryDy=0;endArrow=none;endFill=0;exitX=1;exitY=0.5;exitDx=0;exitDy=0;" parent="RrYDVx2lHr9lMabAJrdJ-329" source="RrYDVx2lHr9lMabAJrdJ-251" target="RrYDVx2lHr9lMabAJrdJ-311" edge="1">
          <mxGeometry relative="1" as="geometry" />
        </mxCell>
        <mxCell id="RrYDVx2lHr9lMabAJrdJ-312" value="drawn" style="ellipse;whiteSpace=wrap;html=1;fontFamily=Open Sans;fontSource=https%3A%2F%2Ffonts.googleapis.com%2Fcss%3Ffamily%3DOpen%2BSans;fillColor=#1EA5A5;" parent="RrYDVx2lHr9lMabAJrdJ-329" vertex="1">
          <mxGeometry x="873" y="286.87" width="50" height="30" as="geometry" />
        </mxCell>
        <mxCell id="RrYDVx2lHr9lMabAJrdJ-257" style="edgeStyle=none;rounded=0;orthogonalLoop=1;jettySize=auto;html=1;entryX=0;entryY=0.5;entryDx=0;entryDy=0;endArrow=none;endFill=0;exitX=1;exitY=0.5;exitDx=0;exitDy=0;" parent="RrYDVx2lHr9lMabAJrdJ-329" source="RrYDVx2lHr9lMabAJrdJ-259" target="RrYDVx2lHr9lMabAJrdJ-312" edge="1">
          <mxGeometry relative="1" as="geometry" />
        </mxCell>
        <mxCell id="RrYDVx2lHr9lMabAJrdJ-313" value="committed" style="ellipse;whiteSpace=wrap;html=1;fontFamily=Open Sans;fontSource=https%3A%2F%2Ffonts.googleapis.com%2Fcss%3Ffamily%3DOpen%2BSans;fillColor=#1EA5A5;" parent="RrYDVx2lHr9lMabAJrdJ-329" vertex="1">
          <mxGeometry x="873" y="319.77" width="65" height="30" as="geometry" />
        </mxCell>
        <mxCell id="RrYDVx2lHr9lMabAJrdJ-258" style="edgeStyle=none;rounded=0;orthogonalLoop=1;jettySize=auto;html=1;entryX=0;entryY=0.5;entryDx=0;entryDy=0;endArrow=none;endFill=0;exitX=1;exitY=0.5;exitDx=0;exitDy=0;" parent="RrYDVx2lHr9lMabAJrdJ-329" source="RrYDVx2lHr9lMabAJrdJ-259" target="RrYDVx2lHr9lMabAJrdJ-313" edge="1">
          <mxGeometry relative="1" as="geometry" />
        </mxCell>
        <mxCell id="RrYDVx2lHr9lMabAJrdJ-314" value="won" style="ellipse;whiteSpace=wrap;html=1;fontFamily=Open Sans;fontSource=https%3A%2F%2Ffonts.googleapis.com%2Fcss%3Ffamily%3DOpen%2BSans;fillColor=#1EA5A5;" parent="RrYDVx2lHr9lMabAJrdJ-329" vertex="1">
          <mxGeometry x="421.5" y="454.47" width="50" height="30" as="geometry" />
        </mxCell>
        <mxCell id="RrYDVx2lHr9lMabAJrdJ-226" style="edgeStyle=none;rounded=0;orthogonalLoop=1;jettySize=auto;html=1;entryX=0.5;entryY=0;entryDx=0;entryDy=0;endArrow=none;endFill=0;exitX=0.5;exitY=1;exitDx=0;exitDy=0;" parent="RrYDVx2lHr9lMabAJrdJ-329" source="RrYDVx2lHr9lMabAJrdJ-227" target="RrYDVx2lHr9lMabAJrdJ-314" edge="1">
          <mxGeometry relative="1" as="geometry" />
        </mxCell>
        <mxCell id="RrYDVx2lHr9lMabAJrdJ-315" value="commited" style="ellipse;whiteSpace=wrap;html=1;fontFamily=Open Sans;fontSource=https%3A%2F%2Ffonts.googleapis.com%2Fcss%3Ffamily%3DOpen%2BSans;fillColor=#1EA5A5;" parent="RrYDVx2lHr9lMabAJrdJ-329" vertex="1">
          <mxGeometry x="486.5" y="454.47" width="62.5" height="30" as="geometry" />
        </mxCell>
        <mxCell id="RrYDVx2lHr9lMabAJrdJ-225" style="edgeStyle=none;rounded=0;orthogonalLoop=1;jettySize=auto;html=1;entryX=0.5;entryY=0;entryDx=0;entryDy=0;endArrow=none;endFill=0;exitX=0.5;exitY=1;exitDx=0;exitDy=0;" parent="RrYDVx2lHr9lMabAJrdJ-329" source="RrYDVx2lHr9lMabAJrdJ-227" target="RrYDVx2lHr9lMabAJrdJ-315" edge="1">
          <mxGeometry relative="1" as="geometry" />
        </mxCell>
        <mxCell id="RrYDVx2lHr9lMabAJrdJ-316" value="scored" style="ellipse;whiteSpace=wrap;html=1;fontFamily=Open Sans;fontSource=https%3A%2F%2Ffonts.googleapis.com%2Fcss%3Ffamily%3DOpen%2BSans;fillColor=#1EA5A5;" parent="RrYDVx2lHr9lMabAJrdJ-329" vertex="1">
          <mxGeometry x="559" y="454.47" width="62.5" height="30" as="geometry" />
        </mxCell>
        <mxCell id="RrYDVx2lHr9lMabAJrdJ-222" style="edgeStyle=none;rounded=0;orthogonalLoop=1;jettySize=auto;html=1;exitX=0.5;exitY=1;exitDx=0;exitDy=0;entryX=0.5;entryY=0;entryDx=0;entryDy=0;endArrow=none;endFill=0;" parent="RrYDVx2lHr9lMabAJrdJ-329" source="RrYDVx2lHr9lMabAJrdJ-227" target="RrYDVx2lHr9lMabAJrdJ-316" edge="1">
          <mxGeometry relative="1" as="geometry" />
        </mxCell>
        <mxCell id="RrYDVx2lHr9lMabAJrdJ-317" value="missed" style="ellipse;whiteSpace=wrap;html=1;fontFamily=Open Sans;fontSource=https%3A%2F%2Ffonts.googleapis.com%2Fcss%3Ffamily%3DOpen%2BSans;fillColor=#1EA5A5;" parent="RrYDVx2lHr9lMabAJrdJ-329" vertex="1">
          <mxGeometry x="631.5" y="454.47" width="62.5" height="30" as="geometry" />
        </mxCell>
        <mxCell id="RrYDVx2lHr9lMabAJrdJ-223" style="edgeStyle=none;rounded=0;orthogonalLoop=1;jettySize=auto;html=1;entryX=0.5;entryY=0;entryDx=0;entryDy=0;endArrow=none;endFill=0;exitX=0.5;exitY=1;exitDx=0;exitDy=0;" parent="RrYDVx2lHr9lMabAJrdJ-329" source="RrYDVx2lHr9lMabAJrdJ-227" target="RrYDVx2lHr9lMabAJrdJ-317" edge="1">
          <mxGeometry relative="1" as="geometry" />
        </mxCell>
        <mxCell id="RrYDVx2lHr9lMabAJrdJ-318" value="saved" style="ellipse;whiteSpace=wrap;html=1;fontFamily=Open Sans;fontSource=https%3A%2F%2Ffonts.googleapis.com%2Fcss%3Ffamily%3DOpen%2BSans;fillColor=#1EA5A5;" parent="RrYDVx2lHr9lMabAJrdJ-329" vertex="1">
          <mxGeometry x="709" y="454.47" width="62.5" height="30" as="geometry" />
        </mxCell>
        <mxCell id="RrYDVx2lHr9lMabAJrdJ-224" style="edgeStyle=none;rounded=0;orthogonalLoop=1;jettySize=auto;html=1;entryX=0.5;entryY=0;entryDx=0;entryDy=0;endArrow=none;endFill=0;exitX=0.5;exitY=1;exitDx=0;exitDy=0;" parent="RrYDVx2lHr9lMabAJrdJ-329" source="RrYDVx2lHr9lMabAJrdJ-227" target="RrYDVx2lHr9lMabAJrdJ-318" edge="1">
          <mxGeometry relative="1" as="geometry" />
        </mxCell>
        <mxCell id="RrYDVx2lHr9lMabAJrdJ-319" value="yellow" style="ellipse;whiteSpace=wrap;html=1;fontFamily=Open Sans;fontSource=https%3A%2F%2Ffonts.googleapis.com%2Fcss%3Ffamily%3DOpen%2BSans;fillColor=#1EA5A5;" parent="RrYDVx2lHr9lMabAJrdJ-329" vertex="1">
          <mxGeometry x="965.25" y="323.47" width="50" height="30" as="geometry" />
        </mxCell>
        <mxCell id="RrYDVx2lHr9lMabAJrdJ-240" style="edgeStyle=none;rounded=0;orthogonalLoop=1;jettySize=auto;html=1;entryX=0;entryY=0.5;entryDx=0;entryDy=0;endArrow=none;endFill=0;exitX=1;exitY=0.5;exitDx=0;exitDy=0;" parent="RrYDVx2lHr9lMabAJrdJ-329" source="RrYDVx2lHr9lMabAJrdJ-241" target="RrYDVx2lHr9lMabAJrdJ-319" edge="1">
          <mxGeometry relative="1" as="geometry" />
        </mxCell>
        <mxCell id="RrYDVx2lHr9lMabAJrdJ-320" value="yellowred" style="ellipse;whiteSpace=wrap;html=1;fontFamily=Open Sans;fontSource=https%3A%2F%2Ffonts.googleapis.com%2Fcss%3Ffamily%3DOpen%2BSans;fillColor=#1EA5A5;" parent="RrYDVx2lHr9lMabAJrdJ-329" vertex="1">
          <mxGeometry x="957.75" y="358.81999999999994" width="67.5" height="30" as="geometry" />
        </mxCell>
        <mxCell id="RrYDVx2lHr9lMabAJrdJ-239" style="edgeStyle=none;rounded=0;orthogonalLoop=1;jettySize=auto;html=1;entryX=0;entryY=0.5;entryDx=0;entryDy=0;endArrow=none;endFill=0;" parent="RrYDVx2lHr9lMabAJrdJ-329" source="RrYDVx2lHr9lMabAJrdJ-241" target="RrYDVx2lHr9lMabAJrdJ-320" edge="1">
          <mxGeometry relative="1" as="geometry" />
        </mxCell>
        <mxCell id="RrYDVx2lHr9lMabAJrdJ-321" value="red" style="ellipse;whiteSpace=wrap;html=1;fontFamily=Open Sans;fontSource=https%3A%2F%2Ffonts.googleapis.com%2Fcss%3Ffamily%3DOpen%2BSans;fillColor=#1EA5A5;" parent="RrYDVx2lHr9lMabAJrdJ-329" vertex="1">
          <mxGeometry x="965.75" y="394.47" width="50" height="30" as="geometry" />
        </mxCell>
        <mxCell id="RrYDVx2lHr9lMabAJrdJ-238" style="edgeStyle=none;rounded=0;orthogonalLoop=1;jettySize=auto;html=1;entryX=0;entryY=0.5;entryDx=0;entryDy=0;endArrow=none;endFill=0;exitX=1;exitY=0.5;exitDx=0;exitDy=0;" parent="RrYDVx2lHr9lMabAJrdJ-329" source="RrYDVx2lHr9lMabAJrdJ-241" target="RrYDVx2lHr9lMabAJrdJ-321" edge="1">
          <mxGeometry relative="1" as="geometry" />
        </mxCell>
        <mxCell id="RrYDVx2lHr9lMabAJrdJ-322" style="edgeStyle=none;rounded=0;orthogonalLoop=1;jettySize=auto;html=1;entryX=0;entryY=0.5;entryDx=0;entryDy=0;startArrow=none;startFill=0;endArrow=none;endFill=0;exitX=1;exitY=0.5;exitDx=0;exitDy=0;fontFamily=Open Sans;fontSource=https%3A%2F%2Ffonts.googleapis.com%2Fcss%3Ffamily%3DOpen%2BSans;" parent="RrYDVx2lHr9lMabAJrdJ-329" source="RrYDVx2lHr9lMabAJrdJ-323" target="RrYDVx2lHr9lMabAJrdJ-179" edge="1">
          <mxGeometry relative="1" as="geometry" />
        </mxCell>
        <mxCell id="RrYDVx2lHr9lMabAJrdJ-323" value="weight" style="ellipse;whiteSpace=wrap;html=1;fontFamily=Open Sans;fontSource=https%3A%2F%2Ffonts.googleapis.com%2Fcss%3Ffamily%3DOpen%2BSans;fillColor=#1EA5A5;" parent="RrYDVx2lHr9lMabAJrdJ-329" vertex="1">
          <mxGeometry x="105" y="374" width="80" height="40" as="geometry" />
        </mxCell>
        <mxCell id="RrYDVx2lHr9lMabAJrdJ-324" style="edgeStyle=none;rounded=0;orthogonalLoop=1;jettySize=auto;html=1;entryX=0;entryY=0.5;entryDx=0;entryDy=0;startArrow=none;startFill=0;endArrow=none;endFill=0;exitX=1;exitY=0.5;exitDx=0;exitDy=0;fontFamily=Open Sans;fontSource=https%3A%2F%2Ffonts.googleapis.com%2Fcss%3Ffamily%3DOpen%2BSans;" parent="RrYDVx2lHr9lMabAJrdJ-329" source="RrYDVx2lHr9lMabAJrdJ-325" target="RrYDVx2lHr9lMabAJrdJ-179" edge="1">
          <mxGeometry relative="1" as="geometry" />
        </mxCell>
        <mxCell id="RrYDVx2lHr9lMabAJrdJ-325" value="injured" style="ellipse;whiteSpace=wrap;html=1;fontFamily=Open Sans;fontSource=https%3A%2F%2Ffonts.googleapis.com%2Fcss%3Ffamily%3DOpen%2BSans;fillColor=#1EA5A5;" parent="RrYDVx2lHr9lMabAJrdJ-329" vertex="1">
          <mxGeometry x="105" y="510" width="80" height="40" as="geometry" />
        </mxCell>
        <mxCell id="RrYDVx2lHr9lMabAJrdJ-326" style="edgeStyle=none;rounded=0;orthogonalLoop=1;jettySize=auto;html=1;entryX=0;entryY=0.5;entryDx=0;entryDy=0;startArrow=none;startFill=0;endArrow=none;endFill=0;exitX=1;exitY=0.5;exitDx=0;exitDy=0;fontFamily=Open Sans;fontSource=https%3A%2F%2Ffonts.googleapis.com%2Fcss%3Ffamily%3DOpen%2BSans;" parent="RrYDVx2lHr9lMabAJrdJ-329" source="RrYDVx2lHr9lMabAJrdJ-327" target="RrYDVx2lHr9lMabAJrdJ-179" edge="1">
          <mxGeometry relative="1" as="geometry">
            <mxPoint x="165" y="541.1199999999999" as="sourcePoint" />
          </mxGeometry>
        </mxCell>
        <mxCell id="RrYDVx2lHr9lMabAJrdJ-327" value="photo" style="ellipse;whiteSpace=wrap;html=1;fontFamily=Open Sans;fontSource=https%3A%2F%2Ffonts.googleapis.com%2Fcss%3Ffamily%3DOpen%2BSans;fillColor=#1EA5A5;" parent="RrYDVx2lHr9lMabAJrdJ-329" vertex="1">
          <mxGeometry x="105" y="555.0000000000002" width="80" height="40" as="geometry" />
        </mxCell>
        <mxCell id="RrYDVx2lHr9lMabAJrdJ-331" value="" style="group" parent="1" vertex="1" connectable="0">
          <mxGeometry x="1150" y="210" width="708.5" height="290" as="geometry" />
        </mxCell>
        <mxCell id="RrYDVx2lHr9lMabAJrdJ-53" value="&lt;font data-font-src=&quot;https://fonts.googleapis.com/css?family=Open+Sans&quot; face=&quot;Open Sans&quot;&gt;&lt;b&gt;NFT&lt;/b&gt;&lt;/font&gt;" style="rounded=0;whiteSpace=wrap;html=1;fillColor=#a5d7d2;" parent="RrYDVx2lHr9lMabAJrdJ-331" vertex="1">
          <mxGeometry x="155" y="160" width="120" height="40" as="geometry" />
        </mxCell>
        <mxCell id="RrYDVx2lHr9lMabAJrdJ-54" value="&lt;font data-font-src=&quot;https://fonts.googleapis.com/css?family=Open+Sans&quot; face=&quot;Open Sans&quot;&gt;slug&lt;/font&gt;" style="ellipse;whiteSpace=wrap;html=1;fillColor=#1EA5A5;" parent="RrYDVx2lHr9lMabAJrdJ-331" vertex="1">
          <mxGeometry x="175" y="70" width="80" height="40" as="geometry" />
        </mxCell>
        <mxCell id="RrYDVx2lHr9lMabAJrdJ-55" style="edgeStyle=none;rounded=0;orthogonalLoop=1;jettySize=auto;html=1;entryX=0.5;entryY=1;entryDx=0;entryDy=0;fontFamily=Open Sans;fontSource=https%3A%2F%2Ffonts.googleapis.com%2Fcss%3Ffamily%3DOpen%2BSans;endArrow=none;endFill=0;exitX=0.5;exitY=0;exitDx=0;exitDy=0;" parent="RrYDVx2lHr9lMabAJrdJ-331" source="RrYDVx2lHr9lMabAJrdJ-53" target="RrYDVx2lHr9lMabAJrdJ-54" edge="1">
          <mxGeometry relative="1" as="geometry" />
        </mxCell>
        <mxCell id="RrYDVx2lHr9lMabAJrdJ-56" value="&lt;font data-font-src=&quot;https://fonts.googleapis.com/css?family=Open+Sans&quot; face=&quot;Open Sans&quot;&gt;owner&lt;/font&gt;" style="ellipse;whiteSpace=wrap;html=1;fillColor=#1EA5A5;" parent="RrYDVx2lHr9lMabAJrdJ-331" vertex="1">
          <mxGeometry x="262" y="70" width="80" height="40" as="geometry" />
        </mxCell>
        <mxCell id="RrYDVx2lHr9lMabAJrdJ-57" style="edgeStyle=none;rounded=0;orthogonalLoop=1;jettySize=auto;html=1;entryX=0.5;entryY=1;entryDx=0;entryDy=0;fontFamily=Open Sans;fontSource=https%3A%2F%2Ffonts.googleapis.com%2Fcss%3Ffamily%3DOpen%2BSans;endArrow=none;endFill=0;exitX=0.5;exitY=0;exitDx=0;exitDy=0;" parent="RrYDVx2lHr9lMabAJrdJ-331" source="RrYDVx2lHr9lMabAJrdJ-53" target="RrYDVx2lHr9lMabAJrdJ-56" edge="1">
          <mxGeometry relative="1" as="geometry" />
        </mxCell>
        <mxCell id="RrYDVx2lHr9lMabAJrdJ-58" value="ownershipHistory" style="ellipse;whiteSpace=wrap;html=1;fillColor=#1EA5A5;fontFamily=Open Sans;fontSource=https%3A%2F%2Ffonts.googleapis.com%2Fcss%3Ffamily%3DOpen%2BSans;" parent="RrYDVx2lHr9lMabAJrdJ-331" vertex="1">
          <mxGeometry x="350" y="70" width="120" height="40" as="geometry" />
        </mxCell>
        <mxCell id="RrYDVx2lHr9lMabAJrdJ-59" style="edgeStyle=none;rounded=0;orthogonalLoop=1;jettySize=auto;html=1;entryX=0.5;entryY=1;entryDx=0;entryDy=0;fontFamily=Open Sans;fontSource=https%3A%2F%2Ffonts.googleapis.com%2Fcss%3Ffamily%3DOpen%2BSans;endArrow=none;endFill=0;exitX=0.5;exitY=0;exitDx=0;exitDy=0;" parent="RrYDVx2lHr9lMabAJrdJ-331" source="RrYDVx2lHr9lMabAJrdJ-53" target="RrYDVx2lHr9lMabAJrdJ-58" edge="1">
          <mxGeometry relative="1" as="geometry" />
        </mxCell>
        <mxCell id="RrYDVx2lHr9lMabAJrdJ-60" value="&lt;font data-font-src=&quot;https://fonts.googleapis.com/css?family=Open+Sans&quot; face=&quot;Open Sans&quot;&gt;assetId&lt;/font&gt;" style="ellipse;whiteSpace=wrap;html=1;fillColor=#1EA5A5;" parent="RrYDVx2lHr9lMabAJrdJ-331" vertex="1">
          <mxGeometry x="87" y="70" width="80" height="40" as="geometry" />
        </mxCell>
        <mxCell id="RrYDVx2lHr9lMabAJrdJ-61" style="edgeStyle=none;rounded=0;orthogonalLoop=1;jettySize=auto;html=1;entryX=0.5;entryY=1;entryDx=0;entryDy=0;fontFamily=Open Sans;fontSource=https%3A%2F%2Ffonts.googleapis.com%2Fcss%3Ffamily%3DOpen%2BSans;exitX=0.5;exitY=0;exitDx=0;exitDy=0;endArrow=none;endFill=0;" parent="RrYDVx2lHr9lMabAJrdJ-331" source="RrYDVx2lHr9lMabAJrdJ-53" target="RrYDVx2lHr9lMabAJrdJ-60" edge="1">
          <mxGeometry relative="1" as="geometry" />
        </mxCell>
        <mxCell id="RrYDVx2lHr9lMabAJrdJ-62" value="&lt;u&gt;&lt;font data-font-src=&quot;https://fonts.googleapis.com/css?family=Open+Sans&quot; face=&quot;Open Sans&quot;&gt;id&lt;/font&gt;&lt;/u&gt;" style="ellipse;whiteSpace=wrap;html=1;fillColor=#1EA5A5;" parent="RrYDVx2lHr9lMabAJrdJ-331" vertex="1">
          <mxGeometry y="70" width="80" height="40" as="geometry" />
        </mxCell>
        <mxCell id="RrYDVx2lHr9lMabAJrdJ-63" style="rounded=0;orthogonalLoop=1;jettySize=auto;html=1;entryX=0.5;entryY=1;entryDx=0;entryDy=0;fontFamily=Open Sans;fontSource=https%3A%2F%2Ffonts.googleapis.com%2Fcss%3Ffamily%3DOpen%2BSans;exitX=0.5;exitY=0;exitDx=0;exitDy=0;endArrow=none;endFill=0;" parent="RrYDVx2lHr9lMabAJrdJ-331" source="RrYDVx2lHr9lMabAJrdJ-53" target="RrYDVx2lHr9lMabAJrdJ-62" edge="1">
          <mxGeometry relative="1" as="geometry" />
        </mxCell>
        <mxCell id="RrYDVx2lHr9lMabAJrdJ-72" value="&lt;font data-font-src=&quot;https://fonts.googleapis.com/css?family=Open+Sans&quot; face=&quot;Open Sans&quot;&gt;from&lt;/font&gt;" style="ellipse;whiteSpace=wrap;html=1;fillColor=#1EA5A5;" parent="RrYDVx2lHr9lMabAJrdJ-331" vertex="1">
          <mxGeometry x="215" width="80" height="40" as="geometry" />
        </mxCell>
        <mxCell id="RrYDVx2lHr9lMabAJrdJ-74" style="edgeStyle=none;rounded=0;orthogonalLoop=1;jettySize=auto;html=1;entryX=0.5;entryY=1;entryDx=0;entryDy=0;fontFamily=Open Sans;fontSource=https%3A%2F%2Ffonts.googleapis.com%2Fcss%3Ffamily%3DOpen%2BSans;fontSize=17;endArrow=none;endFill=0;exitX=0.5;exitY=0;exitDx=0;exitDy=0;" parent="RrYDVx2lHr9lMabAJrdJ-331" source="RrYDVx2lHr9lMabAJrdJ-56" target="RrYDVx2lHr9lMabAJrdJ-72" edge="1">
          <mxGeometry relative="1" as="geometry" />
        </mxCell>
        <mxCell id="RrYDVx2lHr9lMabAJrdJ-73" value="&lt;font data-font-src=&quot;https://fonts.googleapis.com/css?family=Open+Sans&quot; face=&quot;Open Sans&quot;&gt;address&lt;/font&gt;" style="ellipse;whiteSpace=wrap;html=1;fillColor=#1EA5A5;" parent="RrYDVx2lHr9lMabAJrdJ-331" vertex="1">
          <mxGeometry x="315" width="80" height="40" as="geometry" />
        </mxCell>
        <mxCell id="RrYDVx2lHr9lMabAJrdJ-75" style="edgeStyle=none;rounded=0;orthogonalLoop=1;jettySize=auto;html=1;entryX=0.5;entryY=1;entryDx=0;entryDy=0;fontFamily=Open Sans;fontSource=https%3A%2F%2Ffonts.googleapis.com%2Fcss%3Ffamily%3DOpen%2BSans;fontSize=17;endArrow=none;endFill=0;exitX=0.5;exitY=0;exitDx=0;exitDy=0;" parent="RrYDVx2lHr9lMabAJrdJ-331" source="RrYDVx2lHr9lMabAJrdJ-56" target="RrYDVx2lHr9lMabAJrdJ-73" edge="1">
          <mxGeometry relative="1" as="geometry" />
        </mxCell>
        <mxCell id="RrYDVx2lHr9lMabAJrdJ-76" value="&lt;font data-font-src=&quot;https://fonts.googleapis.com/css?family=Open+Sans&quot; face=&quot;Open Sans&quot;&gt;address&lt;/font&gt;" style="ellipse;whiteSpace=wrap;html=1;fillColor=#1EA5A5;" parent="RrYDVx2lHr9lMabAJrdJ-331" vertex="1">
          <mxGeometry x="529.5" width="80" height="40" as="geometry" />
        </mxCell>
        <mxCell id="RrYDVx2lHr9lMabAJrdJ-83" style="edgeStyle=none;rounded=0;orthogonalLoop=1;jettySize=auto;html=1;entryX=0;entryY=0.5;entryDx=0;entryDy=0;fontFamily=Open Sans;fontSource=https%3A%2F%2Ffonts.googleapis.com%2Fcss%3Ffamily%3DOpen%2BSans;fontSize=17;endArrow=none;endFill=0;exitX=1;exitY=0.5;exitDx=0;exitDy=0;" parent="RrYDVx2lHr9lMabAJrdJ-331" source="RrYDVx2lHr9lMabAJrdJ-58" target="RrYDVx2lHr9lMabAJrdJ-76" edge="1">
          <mxGeometry relative="1" as="geometry" />
        </mxCell>
        <mxCell id="RrYDVx2lHr9lMabAJrdJ-77" value="&lt;font data-font-src=&quot;https://fonts.googleapis.com/css?family=Open+Sans&quot; face=&quot;Open Sans&quot;&gt;blockchain&lt;/font&gt;" style="ellipse;whiteSpace=wrap;html=1;fillColor=#1EA5A5;" parent="RrYDVx2lHr9lMabAJrdJ-331" vertex="1">
          <mxGeometry x="529.5" y="50" width="80" height="40" as="geometry" />
        </mxCell>
        <mxCell id="RrYDVx2lHr9lMabAJrdJ-84" style="edgeStyle=none;rounded=0;orthogonalLoop=1;jettySize=auto;html=1;entryX=0;entryY=0.5;entryDx=0;entryDy=0;fontFamily=Open Sans;fontSource=https%3A%2F%2Ffonts.googleapis.com%2Fcss%3Ffamily%3DOpen%2BSans;fontSize=17;endArrow=none;endFill=0;exitX=1;exitY=0.5;exitDx=0;exitDy=0;" parent="RrYDVx2lHr9lMabAJrdJ-331" source="RrYDVx2lHr9lMabAJrdJ-58" target="RrYDVx2lHr9lMabAJrdJ-77" edge="1">
          <mxGeometry relative="1" as="geometry" />
        </mxCell>
        <mxCell id="RrYDVx2lHr9lMabAJrdJ-78" value="&lt;font data-font-src=&quot;https://fonts.googleapis.com/css?family=Open+Sans&quot; face=&quot;Open Sans&quot;&gt;from&lt;/font&gt;" style="ellipse;whiteSpace=wrap;html=1;fillColor=#1EA5A5;" parent="RrYDVx2lHr9lMabAJrdJ-331" vertex="1">
          <mxGeometry x="529.5" y="100" width="80" height="40" as="geometry" />
        </mxCell>
        <mxCell id="RrYDVx2lHr9lMabAJrdJ-79" value="&lt;font data-font-src=&quot;https://fonts.googleapis.com/css?family=Open+Sans&quot; face=&quot;Open Sans&quot;&gt;priceFiat&lt;/font&gt;" style="ellipse;whiteSpace=wrap;html=1;fillColor=#1EA5A5;" parent="RrYDVx2lHr9lMabAJrdJ-331" vertex="1">
          <mxGeometry x="531.5" y="150" width="80" height="40" as="geometry" />
        </mxCell>
        <mxCell id="RrYDVx2lHr9lMabAJrdJ-85" style="edgeStyle=none;rounded=0;orthogonalLoop=1;jettySize=auto;html=1;entryX=0;entryY=0.5;entryDx=0;entryDy=0;fontFamily=Open Sans;fontSource=https%3A%2F%2Ffonts.googleapis.com%2Fcss%3Ffamily%3DOpen%2BSans;fontSize=17;endArrow=none;endFill=0;exitX=1;exitY=0.5;exitDx=0;exitDy=0;" parent="RrYDVx2lHr9lMabAJrdJ-331" source="RrYDVx2lHr9lMabAJrdJ-58" target="RrYDVx2lHr9lMabAJrdJ-78" edge="1">
          <mxGeometry relative="1" as="geometry" />
        </mxCell>
        <mxCell id="RrYDVx2lHr9lMabAJrdJ-80" value="&lt;font data-font-src=&quot;https://fonts.googleapis.com/css?family=Open+Sans&quot; face=&quot;Open Sans&quot;&gt;eur&lt;/font&gt;" style="ellipse;whiteSpace=wrap;html=1;fillColor=#1EA5A5;" parent="RrYDVx2lHr9lMabAJrdJ-331" vertex="1">
          <mxGeometry x="628.5" y="150" width="80" height="40" as="geometry" />
        </mxCell>
        <mxCell id="RrYDVx2lHr9lMabAJrdJ-81" value="&lt;font data-font-src=&quot;https://fonts.googleapis.com/css?family=Open+Sans&quot; face=&quot;Open Sans&quot;&gt;priceWei&lt;/font&gt;" style="ellipse;whiteSpace=wrap;html=1;fillColor=#1EA5A5;" parent="RrYDVx2lHr9lMabAJrdJ-331" vertex="1">
          <mxGeometry x="531.5" y="200" width="80" height="40" as="geometry" />
        </mxCell>
        <mxCell id="RrYDVx2lHr9lMabAJrdJ-82" value="&lt;font data-font-src=&quot;https://fonts.googleapis.com/css?family=Open+Sans&quot; face=&quot;Open Sans&quot;&gt;transferType&lt;/font&gt;" style="ellipse;whiteSpace=wrap;html=1;fillColor=#1EA5A5;" parent="RrYDVx2lHr9lMabAJrdJ-331" vertex="1">
          <mxGeometry x="531.5" y="250" width="80" height="40" as="geometry" />
        </mxCell>
        <mxCell id="RrYDVx2lHr9lMabAJrdJ-86" style="edgeStyle=none;rounded=0;orthogonalLoop=1;jettySize=auto;html=1;entryX=0;entryY=0.5;entryDx=0;entryDy=0;fontFamily=Open Sans;fontSource=https%3A%2F%2Ffonts.googleapis.com%2Fcss%3Ffamily%3DOpen%2BSans;fontSize=17;endArrow=none;endFill=0;exitX=1;exitY=0.5;exitDx=0;exitDy=0;" parent="RrYDVx2lHr9lMabAJrdJ-331" source="RrYDVx2lHr9lMabAJrdJ-58" target="RrYDVx2lHr9lMabAJrdJ-79" edge="1">
          <mxGeometry relative="1" as="geometry" />
        </mxCell>
        <mxCell id="RrYDVx2lHr9lMabAJrdJ-89" style="edgeStyle=none;rounded=0;orthogonalLoop=1;jettySize=auto;html=1;entryX=0;entryY=0.5;entryDx=0;entryDy=0;fontFamily=Open Sans;fontSource=https%3A%2F%2Ffonts.googleapis.com%2Fcss%3Ffamily%3DOpen%2BSans;fontSize=17;endArrow=none;endFill=0;" parent="RrYDVx2lHr9lMabAJrdJ-331" source="RrYDVx2lHr9lMabAJrdJ-79" target="RrYDVx2lHr9lMabAJrdJ-80" edge="1">
          <mxGeometry relative="1" as="geometry" />
        </mxCell>
        <mxCell id="RrYDVx2lHr9lMabAJrdJ-87" style="edgeStyle=none;rounded=0;orthogonalLoop=1;jettySize=auto;html=1;entryX=0;entryY=0.5;entryDx=0;entryDy=0;fontFamily=Open Sans;fontSource=https%3A%2F%2Ffonts.googleapis.com%2Fcss%3Ffamily%3DOpen%2BSans;fontSize=17;endArrow=none;endFill=0;exitX=1;exitY=0.5;exitDx=0;exitDy=0;" parent="RrYDVx2lHr9lMabAJrdJ-331" source="RrYDVx2lHr9lMabAJrdJ-58" target="RrYDVx2lHr9lMabAJrdJ-81" edge="1">
          <mxGeometry relative="1" as="geometry" />
        </mxCell>
        <mxCell id="RrYDVx2lHr9lMabAJrdJ-88" style="edgeStyle=none;rounded=0;orthogonalLoop=1;jettySize=auto;html=1;entryX=0;entryY=0.5;entryDx=0;entryDy=0;fontFamily=Open Sans;fontSource=https%3A%2F%2Ffonts.googleapis.com%2Fcss%3Ffamily%3DOpen%2BSans;fontSize=17;endArrow=none;endFill=0;exitX=1;exitY=0.5;exitDx=0;exitDy=0;" parent="RrYDVx2lHr9lMabAJrdJ-331" source="RrYDVx2lHr9lMabAJrdJ-58" target="RrYDVx2lHr9lMabAJrdJ-82" edge="1">
          <mxGeometry relative="1" as="geometry" />
        </mxCell>
      </root>
    </mxGraphModel>
  </diagram>
</mxfile>
